<svg width="101" height="106" viewBox="0 0 101 106" fill="none" xmlns="http://www.w3.org/2000/svg">
<g clip-path="url(#clip0_291_927)">
<path d="M26.9908 41.6674C11.4165 44.8705 1.02827 54.9339 0.426622 71.0664C-0.124585 85.8686 8.27142 101.024 23.5341 104.618C40.5747 108.631 63.6137 102.452 69.2933 84.3022C73.6057 70.522 64.6441 52.834 53.1354 45.1246C48.6068 42.0892 29.8514 38.3111 26.9908 41.6674Z" fill="#AEC02F"/>
<path d="M80.539 3.21085C75.2773 3.08828 71.1306 8.33359 68.3692 12.09C65.2745 16.3025 65.3808 23.0259 66.9912 27.8259C68.18 31.3697 70.8586 34.3492 74.6144 35.4109C77.7739 36.3031 81.2217 35.1279 84.2083 34.2645C87.348 33.3578 90.9038 32.918 93.4779 30.7748C103.567 22.3733 96.6843 3.05043 80.539 3.21085Z" fill="#AEC02F"/>
<path d="M53.4578 57.7207C53.4578 52.8755 53.2182 47.9889 52.9876 43.2627L52.8165 39.692C52.7805 38.8989 52.7787 38.0751 52.7769 37.2405C52.7697 34.7531 52.7625 32.1809 51.9249 29.8827C51.1719 27.8152 49.6714 26.375 47.5854 25.7207C44.6763 24.8104 40.7638 25.5801 37.8547 27.635C36.7486 28.4173 35.947 29.4375 35.1725 30.4253L35.0248 30.6127C32.9983 33.1849 30.725 35.301 28.3166 37.538L27.7528 38.0625C25.2453 40.3985 22.9486 43.5403 20.5259 47.9511C17.1592 54.0796 13.362 61.3455 10.7392 68.7502C8.98113 73.7144 8.98473 78.9633 8.98833 84.0391V84.78C8.98833 85.2162 9.22971 85.6181 9.61339 85.8236C10.7825 86.4491 14.1311 86.5897 14.7418 86.5915L15.4479 86.5987C15.5344 86.5987 15.6208 86.5987 15.7037 86.5987C17.9806 86.5987 18.6885 86.1228 18.8902 83.4461C18.9785 82.2601 18.9605 81.074 18.9407 79.9276C18.9101 78.1197 18.883 76.4127 19.2559 74.7706C19.7675 72.5247 20.3205 72.5319 22.9324 72.5463H23.5755C26.0866 72.5463 28.6913 72.3643 31.2113 72.1894C35.086 71.9154 39.0814 71.6361 42.7993 72.0182C42.7885 74.5994 43.0713 77.3428 43.3469 80.0069C43.5216 81.6923 43.6946 83.3668 43.7918 84.9818C43.8261 85.546 44.2548 86.0093 44.815 86.0832C47.2396 86.4094 50.0605 86.2995 52.7445 86.1391C53.2885 86.1048 53.7388 85.7065 53.8361 85.1693C54.2954 82.6314 54.1495 79.6987 54.0342 77.3428C53.7478 71.5495 53.4542 64.6874 53.4542 57.7225L53.4578 57.7207ZM51.6474 83.8282C49.7416 83.9274 47.8124 83.9742 46.0867 83.8373C45.9859 82.5016 45.8436 81.1335 45.7013 79.7582C45.395 76.7984 45.078 73.7378 45.1879 71.016C45.2131 70.4086 44.7736 69.8804 44.1719 69.7957C39.9208 69.2045 35.4121 69.5181 31.0492 69.8245C28.5706 69.9994 26.0055 70.1778 23.5791 70.1778L22.9504 70.1742C20.2539 70.1742 17.8869 70.14 16.9538 74.2425C16.5179 76.1622 16.5485 78.0963 16.5791 79.9637C16.599 81.1082 16.617 82.1861 16.5341 83.2677C16.5017 83.7111 16.4657 84.0319 16.4296 84.2212C16.2009 84.2374 15.8226 84.2302 15.4821 84.2284L14.7508 84.2212C13.7312 84.2176 12.2307 84.0662 11.3553 83.8985C11.3517 79.0624 11.3607 74.0712 12.9693 69.5361C15.5362 62.2882 19.2775 55.1323 22.5992 49.0848C24.8977 44.9012 27.0485 41.9451 29.365 39.7875L29.927 39.2648C32.4038 36.963 34.7438 34.7873 36.8837 32.0709L37.0333 31.8817C37.734 30.9894 38.3951 30.1459 39.2201 29.5637C41.5204 27.9378 44.6673 27.2817 46.8793 27.9756C48.2537 28.4064 49.2048 29.3185 49.702 30.6884C50.3955 32.5991 50.4027 34.9604 50.4099 37.2441C50.4117 38.113 50.4153 38.971 50.4532 39.7983L50.6243 43.3763C50.8531 48.0718 51.0908 52.9314 51.0908 57.7189C51.0908 64.7379 51.3863 71.6343 51.6727 77.4546C51.7699 79.3977 51.8852 81.7536 51.6438 83.8264L51.6474 83.8282Z" fill="#F9F7F2"/>
<path d="M81.5513 52.3132C82.9419 50.3539 83.6967 48.6108 84.0444 45.552C84.7036 39.7389 83.5778 35.6868 80.2796 32.0043C76.3581 27.626 71.9863 25.3098 66.9155 24.924L66.3985 24.8808C61.7223 24.468 57.2099 24.3815 55.8824 26.5084C55.8319 26.5914 55.7905 26.6797 55.7617 26.7716C54.897 29.4483 55.115 32.5811 55.3275 35.6075C55.414 36.8476 55.4969 38.0157 55.4951 39.081C55.4915 43.6864 55.6158 48.4937 55.8697 53.3749C56.1273 58.3534 56.1255 63.4473 56.1237 68.3718V69.4767C56.1237 70.8917 56.0733 72.3283 56.0247 73.7739C55.9238 76.7156 55.8193 79.7564 56.1309 82.6999C56.4966 86.1499 58.6096 86.0598 60.4685 85.9913C61.8574 85.9336 63.7235 85.9769 65.4366 86.0129C66.73 86.0418 68.0305 86.067 69.3347 86.067C74.1911 86.067 79.0655 85.6849 83.5526 83.4876C90.2535 80.2034 93.3032 74.1704 92.3719 66.0429C91.7703 60.8012 87.1805 53.6092 81.5531 52.3114L81.5513 52.3132ZM82.5096 81.3624C77.3344 83.8986 71.3126 83.7724 65.4835 83.648C64.2081 83.621 62.9418 83.5958 61.6898 83.5958C61.2071 83.5958 60.7694 83.6138 60.3713 83.6282C59.1956 83.6739 58.5645 83.2821 58.4781 82.453C58.1845 79.6771 58.2871 76.7174 58.3844 73.8568C58.4348 72.386 58.4853 70.9205 58.4853 69.4785V68.3754C58.4853 63.4185 58.4889 58.2921 58.2277 53.2523C57.9773 48.4126 57.853 43.6467 57.8566 39.0846C57.8566 37.9346 57.7738 36.7251 57.6837 35.4435C57.4927 32.7181 57.2964 29.9026 57.9521 27.6855C58.2583 27.3953 59.6886 26.6599 66.1896 27.2385L66.7354 27.2835C71.1685 27.6224 75.0233 29.6827 78.5197 33.5851C81.3586 36.7539 82.2773 40.1444 81.6954 45.2834C81.3171 48.6216 80.4417 49.9988 78.381 52.5673C78.0856 52.9351 78.0369 53.4434 78.2567 53.8597C78.4764 54.2761 78.9214 54.5429 79.3915 54.4888C84.4965 54.1265 89.4538 61.369 90.0212 66.3169C90.8408 73.4584 88.3135 78.5217 82.5114 81.3643L82.5096 81.3624Z" fill="#F9F7F2"/>
<path d="M43.718 34.5602C38.3482 35.3858 33.2144 39.9948 28.0266 48.6468C27.6195 49.3246 27.1655 50.0438 26.6936 50.7936C24.2834 54.6113 21.2824 59.3646 21.3509 63.806C21.3599 64.4278 21.848 64.9343 22.4659 64.9704C25.6488 65.1506 28.7255 65.2389 31.6689 65.2389C33.7638 65.2389 35.7903 65.1939 37.7394 65.102C37.9861 65.0911 38.3572 65.1182 38.7697 65.1452C40.2864 65.2462 41.4195 65.2804 42.1778 64.8496C44.0728 63.7681 43.9503 60.5632 43.8531 57.9874C43.8369 57.5512 43.8206 57.1565 43.8224 56.8356C43.8278 55.4297 43.799 53.9913 43.7684 52.5276C43.6603 47.1922 43.5468 41.6765 45.0401 36.0293C45.1428 35.6435 45.0419 35.2325 44.7772 34.9369C44.5106 34.6395 44.1089 34.4917 43.718 34.5602ZM41.4051 52.5781C41.4339 54.0237 41.4627 55.4423 41.4591 56.8284C41.4591 57.1745 41.4735 57.6035 41.4915 58.0776C41.6014 60.9616 41.4375 62.5478 41.0412 62.7767C40.7152 62.8975 39.5065 62.82 38.9282 62.7839C38.4094 62.7479 37.9429 62.7172 37.6313 62.7389C33.3621 62.9335 28.7075 62.9137 23.7772 62.6686C24.1934 59.1861 26.6684 55.2675 28.6949 52.0572C29.1794 51.2893 29.6424 50.5557 30.0567 49.8635C34.2466 42.8752 38.2707 38.7547 42.3039 37.3433C41.2033 42.6174 41.306 47.6699 41.4069 52.5763L41.4051 52.5781Z" fill="#F9F7F2"/>
<path d="M63.5038 52.8053C63.8947 52.8431 64.3036 52.8611 64.7251 52.8611C68.4737 52.8611 73.2148 51.3633 75.6232 48.2611C77.2191 46.2045 77.5704 43.7531 76.6391 41.1647C74.9062 36.3501 68.861 33.7311 63.783 32.8839C63.439 32.8316 63.0895 32.9236 62.8247 33.1471C62.5599 33.3724 62.4068 33.7023 62.4068 34.0501C62.4068 35.9121 62.3798 37.7867 62.3528 39.6686C62.2951 43.6215 62.2357 47.7114 62.4374 51.6841C62.468 52.2699 62.922 52.7458 63.5056 52.8017L63.5038 52.8053ZM64.7143 39.7064C64.7341 38.2987 64.7539 36.8927 64.7647 35.494C68.7078 36.406 73.1715 38.5204 74.4127 41.9704C75.0647 43.7801 74.8432 45.4096 73.7534 46.8137C71.88 49.2255 67.9279 50.4999 64.7539 50.4999H64.7485C64.608 46.9345 64.6621 43.2646 64.7143 39.7064Z" fill="#F9F7F2"/>
<path d="M78.1018 61.6898C73.6579 59.5989 67.9224 59.3988 63.2156 59.2816C62.9165 59.0743 62.5311 59.0131 62.1726 59.1284C61.8322 59.2402 61.5656 59.4979 61.4395 59.8206C61.4016 59.8801 61.3692 59.9432 61.3422 60.0117C61.2287 60.3001 61.2341 60.6119 61.344 60.8877C61.29 64.7306 61.5674 68.6186 61.8213 71.6234C61.8394 71.8397 61.8538 72.166 61.8718 72.5517C62.0087 75.5853 62.2086 77.2743 62.9202 78.0926C63.8442 79.1561 65.2727 79.5581 66.9137 79.5581C71.7557 79.5581 78.4386 76.0414 79.4131 75.5132C82.234 73.9865 83.7453 71.6919 83.6715 69.0512C83.5886 66.0843 81.454 63.2634 78.1018 61.688V61.6898ZM78.2891 73.4349C73.8218 75.8521 66.4165 78.5054 64.7341 76.5785C64.3972 76.0234 64.2766 73.3304 64.2369 72.4454C64.2171 72.0218 64.2009 71.6631 64.1811 71.4251C63.9487 68.6727 63.6947 65.1614 63.7055 61.6627C68.2539 61.7817 73.2454 62.0196 77.0984 63.8312C79.5987 65.0064 81.2523 67.0847 81.3099 69.1215C81.3586 70.8231 80.2868 72.3552 78.2909 73.4367L78.2891 73.4349Z" fill="#F9F7F2"/>
<path d="M99.5016 10.1055C92.815 8.33908 84.6136 10.713 79.6167 15.5077C79.0385 9.32865 74.5766 1.73828 68.8285 0.186319C68.2593 0.0331055 67.7081 0.33773 67.4739 0.873075C67.4415 0.946978 67.4181 1.02268 67.4019 1.10019C67.1677 1.24259 66.7876 1.45709 66.1824 1.77433C65.9842 1.87888 65.8185 2.0375 65.7068 2.23037C64.4657 4.37355 64.3792 7.0647 65.4564 10.01C67.6703 16.0592 74.4739 22.4329 79.0799 24.0858C80.6597 24.6518 82.4088 24.9258 84.2065 24.9258C88.0883 24.9258 92.1972 23.6514 95.3207 21.3117C98.8099 18.6999 100.608 15.1021 100.379 11.1816C100.348 10.6715 99.9951 10.2389 99.5016 10.1055ZM93.903 19.4173C89.9942 22.3428 84.0966 23.372 79.8761 21.8579C75.8465 20.4123 69.6391 14.5667 67.6757 9.19887C66.8867 7.04127 66.8615 5.19369 67.5982 3.70302C68.2683 3.34973 68.7691 3.06493 69.1293 2.79275C74.2992 5.01344 78.2477 13.7015 77.1291 18.6584C77.003 19.2154 77.293 19.7814 77.8172 20.0067C78.3414 20.2338 78.952 20.0464 79.2672 19.5741C82.9023 14.1071 91.3073 10.8572 98.0299 12.1946C97.9002 15.6843 95.7584 18.0312 93.9048 19.4191L93.903 19.4173Z" fill="#F9F7F2"/>
</g>
<defs>
<clipPath id="clip0_291_927">
<rect width="100" height="105.645" fill="white" transform="translate(0.400024 0.146606)"/>
</clipPath>
</defs>
</svg>
