<svg width="87" height="111" viewBox="0 0 87 111" fill="none" xmlns="http://www.w3.org/2000/svg">
<g clip-path="url(#clip0_291_961)">
<path d="M53.5104 57.2127C49.709 59.1536 45.0483 59.6994 40.9803 60.9297C37.1676 62.0838 33.2645 62.9632 29.3736 63.8411C24.5928 64.9187 19.7461 65.1274 14.9003 65.8332C12.0506 66.2482 9.89847 65.9752 8.21009 68.6066C5.6487 72.5998 7.19414 77.6777 8.37739 81.8416C9.52246 85.8736 9.96182 89.9886 10.7837 94.1149C11.1686 96.0469 11.5877 97.6541 12.2983 99.4838C14.7435 105.778 20.3934 105.215 26.8123 104.944C29.0659 104.849 33.5162 105.273 35.4824 103.902C37.0279 102.824 38.1761 99.604 38.9013 98.0813C40.926 93.8282 42.9522 89.5761 44.894 85.2856C48.5582 77.1929 54.2381 67.4744 53.5104 57.2127Z" fill="#AEC02F"/>
<path d="M1.55969 56.7326C1.84474 67.4177 1.59218 78.8156 4.48249 89.1472C5.45702 92.6312 6.39012 96.0746 7.06255 99.6194C7.45155 101.67 7.58554 104.684 8.65265 106.532C9.96667 108.809 11.932 108.372 14.7914 108.441C18.2331 108.524 21.6642 108.677 25.1012 108.708C31.8636 108.768 39.499 110.103 46.0698 108.666C46.0154 98.2112 51.8854 88.4594 53.2829 78.1603C54.3721 70.1391 56.6736 60.6357 55.9158 52.5064C45.1351 52.6632 34.775 57.1461 24.0933 57.2622C18.7131 57.3199 13.8169 54.6017 8.4675 54.6131C6.55174 54.6172 1.57269 54.3906 1.55969 56.7326Z" stroke="#F9F7F2" stroke-width="1.46164" stroke-miterlimit="10" stroke-linecap="round" stroke-linejoin="round"/>
<path d="M18.3997 50.4559C15.6052 52.1012 18.5321 55.5721 20.918 54.7333C24.9469 53.317 21.1787 50.1326 18.6052 50.1505C18.433 50.3746 18.541 50.5647 18.93 50.7206" stroke="#F9F7F2" stroke-width="1.46164" stroke-miterlimit="10" stroke-linecap="round" stroke-linejoin="round"/>
<path d="M30.1728 47.8166C27.1314 48.675 27.1714 52.7655 30.483 52.8004C33.1849 52.8297 32.709 48.765 30.903 47.7638C30.8348 48.0779 31.0337 48.2729 31.4982 48.3467" stroke="#F9F7F2" stroke-width="1.46164" stroke-miterlimit="10" stroke-linecap="round" stroke-linejoin="round"/>
<path d="M34.1147 48.2632C30.2336 47.9905 32.3232 53.1131 35.4077 52.5187C38.7299 51.878 37.3428 48.2437 34.6451 47.9986" stroke="#F9F7F2" stroke-width="1.46164" stroke-miterlimit="10" stroke-linecap="round" stroke-linejoin="round"/>
<path d="M8.55847 51.1763C6.21067 52.9711 9.25851 56.0628 11.0768 54.1032C12.9398 52.0957 9.66375 48.9266 8.55847 50.9115" stroke="#F9F7F2" stroke-width="1.46164" stroke-miterlimit="10" stroke-linecap="round" stroke-linejoin="round"/>
<path d="M28.5347 56.9316C31.5632 55.7711 29.2503 51.8641 26.7587 52.2961C22.5512 53.027 25.7404 56.7913 28.2813 57.199C28.4886 57.0065 28.4137 56.8008 28.0555 56.5826" stroke="#F9F7F2" stroke-width="1.46164" stroke-miterlimit="10" stroke-linecap="round" stroke-linejoin="round"/>
<path d="M24.2518 50.6588C27.3929 50.3154 28.0304 46.2752 24.7707 45.6921C22.111 45.217 21.9071 49.3043 23.5233 50.5898C23.6418 50.291 23.4786 50.0669 23.0318 49.9166" stroke="#F9F7F2" stroke-width="1.46164" stroke-miterlimit="10" stroke-linecap="round" stroke-linejoin="round"/>
<path d="M20.2106 47.9279C23.9927 48.8397 22.78 43.4418 19.6389 43.5181C16.2565 43.6 17.0239 47.4137 19.6438 48.1017" stroke="#F9F7F2" stroke-width="1.46164" stroke-miterlimit="10" stroke-linecap="round" stroke-linejoin="round"/>
<path d="M43.3111 23.796C47.094 24.7079 45.8807 19.3097 42.7402 19.3862C39.3578 19.4681 40.1244 23.2819 42.7443 23.9696" stroke="#F9F7F2" stroke-width="1.46164" stroke-miterlimit="10" stroke-linecap="round" stroke-linejoin="round"/>
<path d="M12.4842 49.1255C15.096 47.7451 12.602 44.1912 10.484 45.8228C8.31487 47.4941 11.0216 51.1623 12.4404 49.3871" stroke="#F9F7F2" stroke-width="1.46164" stroke-miterlimit="10" stroke-linecap="round" stroke-linejoin="round"/>
<path d="M36.5179 20.8788C39.1295 19.4983 36.6355 15.9444 34.5177 17.5767C32.3484 19.2474 35.0551 22.9155 36.474 21.1411" stroke="#F9F7F2" stroke-width="1.46164" stroke-miterlimit="10" stroke-linecap="round" stroke-linejoin="round"/>
<path d="M40.7612 48.9129C38.9281 51.5879 43.0504 53.4908 44.8558 51.7195C47.9044 48.7284 43.1414 47.4422 40.8179 48.5499C40.757 48.826 40.9358 48.9519 41.3539 48.9282" stroke="#F9F7F2" stroke-width="1.46164" stroke-miterlimit="10" stroke-linecap="round" stroke-linejoin="round"/>
<path d="M46.9567 47.9887C44.5665 50.0555 46.3362 53.7432 49.3507 52.3717C51.8106 51.2526 49.6561 47.7727 47.5958 47.6322C47.668 47.9457 47.9303 48.0366 48.3827 47.9066" stroke="#F9F7F2" stroke-width="1.46164" stroke-miterlimit="10" stroke-linecap="round" stroke-linejoin="round"/>
<path d="M41.7437 15.579C38.1127 16.9767 42.1766 20.7301 44.7186 18.8844C47.4562 16.8962 44.6593 14.1919 42.1117 15.1137" stroke="#F9F7F2" stroke-width="1.46164" stroke-miterlimit="10" stroke-linecap="round" stroke-linejoin="round"/>
<path d="M48.7735 44.8848C47.4076 47.5048 51.4787 49.0135 52.2947 46.4676C53.1313 43.8599 48.8205 42.3778 48.6606 44.6445" stroke="#F9F7F2" stroke-width="1.46164" stroke-miterlimit="10" stroke-linecap="round" stroke-linejoin="round"/>
<path d="M21.0097 36.2894C19.6437 38.9102 23.7149 40.4183 24.5309 37.8723C25.3675 35.2646 21.0567 33.7833 20.8968 36.049" stroke="#F9F7F2" stroke-width="1.46164" stroke-miterlimit="10" stroke-linecap="round" stroke-linejoin="round"/>
<path d="M32.0422 23.2006C30.6771 25.8214 34.7482 27.3295 35.5645 24.7836C36.4 22.1765 32.0894 20.6946 31.9302 22.9611" stroke="#F9F7F2" stroke-width="1.46164" stroke-miterlimit="10" stroke-linecap="round" stroke-linejoin="round"/>
<path d="M48.7735 18.7845C47.4076 21.4044 51.4787 22.9132 52.2947 20.3672C53.1313 17.7595 48.8205 16.2782 48.6606 18.5441" stroke="#F9F7F2" stroke-width="1.46164" stroke-miterlimit="10" stroke-linecap="round" stroke-linejoin="round"/>
<path d="M1.36646 69.7174C3.10925 72.0255 6.51199 72.8278 8.49272 75.0166C10.5896 77.3343 10.0942 80.521 11.7436 82.8981C14.1052 86.3008 17.6119 83.9756 20.8076 84.169C23.6117 84.3386 28.6021 86.4453 30.8015 88.0151" stroke="#F9F7F2" stroke-width="1.46164" stroke-miterlimit="10" stroke-linecap="round" stroke-linejoin="round"/>
<path d="M54.4021 66.0054C48.1366 68.6204 41.1859 69.7233 34.5127 70.7659C30.2435 71.4327 25.8793 70.01 21.5206 69.9832" stroke="#F9F7F2" stroke-width="1.46164" stroke-miterlimit="10" stroke-linecap="round" stroke-linejoin="round"/>
<path d="M10.9128 107.904C12.4031 104.767 16.92 103.941 19.816 102.848C24.2161 101.188 28.9564 99.8168 33.7186 99.9484" stroke="#F9F7F2" stroke-width="1.46164" stroke-miterlimit="10" stroke-linecap="round" stroke-linejoin="round"/>
<path d="M51.6539 8.68423C47.1882 8.38215 41.4824 12.095 37.321 13.716C34.4641 14.8287 31.6063 15.9753 28.9075 17.3772C26.2537 18.7568 20.7239 21.8786 22.5048 25.7888C24.583 30.3506 34.784 26.5969 37.7287 25.9514C42.2919 24.9499 46.5499 23.7358 51.2333 23.2666C53.8946 22.9994 59.8084 23.7358 59.7287 20.7279C59.6217 16.7104 54.8861 11.5445 51.6539 8.68423Z" stroke="#F9F7F2" stroke-width="1.46164" stroke-miterlimit="10" stroke-linecap="round" stroke-linejoin="round"/>
<path d="M21.424 24.3304C22.3377 36.1402 37.4323 34.9998 45.8117 32.9258C48.0506 32.372 50.2425 31.4518 52.4506 30.8874C53.9514 30.5023 56.4973 30.7907 57.7587 29.8917C59.62 28.5639 59.3926 24.0518 59.8749 21.9435" stroke="#F9F7F2" stroke-width="1.46164" stroke-miterlimit="10" stroke-linecap="round" stroke-linejoin="round"/>
<path d="M56.9578 11.8669C65.3607 9.91618 71.7276 4.13469 79.8284 1.59934C81.685 4.82512 84.4054 9.03261 85.0349 12.6043C80.3164 12.8047 74.9079 14.8896 70.3341 15.9794C67.6517 16.6185 65.0586 17.1374 62.4769 18.1777C61.2781 18.6609 60.2931 19.3326 58.9993 19.3715C58.9596 19.638 59.1625 19.612 59.6093 19.2919" stroke="#F9F7F2" stroke-width="1.46164" stroke-miterlimit="10" stroke-linecap="round" stroke-linejoin="round"/>
</g>
<defs>
<clipPath id="clip0_291_961">
<rect width="85.9459" height="110" fill="white" transform="translate(0.227051 0.469238)"/>
</clipPath>
</defs>
</svg>
