<svg width="101" height="104" viewBox="0 0 101 104" fill="none" xmlns="http://www.w3.org/2000/svg">
<g clip-path="url(#clip0_291_953)">
<path d="M56.7639 40.0204C47.012 40.2221 38.9376 51.2875 35.2154 59.2744C29.147 72.2932 29.7973 84.2136 40.3805 94.7573C53.4859 107.814 73.5613 104.884 88.1315 95.0773C101.976 85.7603 104.543 66.2647 94.5652 53.1992C85.4199 41.2255 73.1222 38.5337 56.7639 40.0204Z" fill="#AEC02F"/>
<path d="M40.1743 35.2703C40.1408 37.412 40.5648 40.0055 42.5575 40.8188C44.5115 38.8654 44.9791 35.9403 45.8522 33.3252C46.7254 30.7101 48.5739 27.9351 51.3408 27.805C52.648 27.745 53.8998 28.3051 55.1986 28.4617C57.2348 28.7067 59.4353 27.8234 60.5062 26.085C61.5771 24.3466 61.2704 21.8132 59.6498 20.5631C58.3912 19.5914 56.6449 19.5014 55.0813 19.7981C53.5177 20.0948 52.0346 20.7281 50.4794 21.0682C49.6649 21.2465 48.7163 21.3098 48.0946 20.7598C47.6957 20.4081 47.5197 19.8714 47.4175 19.3514C47.1779 18.1281 47.265 16.8447 47.6706 15.6646C48.1281 14.3313 48.8772 12.5995 47.7544 11.7412C47.0773 11.2245 46.0483 11.4545 45.4165 12.0228C44.7847 12.5912 44.4562 13.4129 44.1462 14.2029C43.3652 16.2013 42.5826 18.2014 41.8016 20.1998C41.6558 20.5748 41.4665 20.9898 41.086 21.1215C40.7441 21.2382 40.3738 21.0815 40.0604 20.9015C38.3577 19.9214 36.6852 18.1031 34.8182 18.7214C33.2814 19.2298 32.7401 21.2632 33.2915 22.7765C34.0356 24.8183 36.0802 26.16 37.6924 27.4867C38.3946 28.0651 39.1638 28.5034 39.8827 29.0468C40.5749 29.5684 40.5347 30.2451 40.4458 31.0418C40.2883 32.4469 40.1961 33.8569 40.1743 35.2703Z" fill="#AEC02F"/>
<path d="M88.4147 24.6333C87.3907 24.0833 86.1942 24.3216 84.8585 25.3433C82.3497 27.2567 80.3688 29.5451 78.4533 31.7552C77.6773 32.6519 76.8947 33.5536 76.0735 34.4386C74.4579 36.1787 73.0653 37.5288 71.7196 38.8321C70.4207 40.0922 69.075 41.4006 67.5265 43.0539C65.7199 42.8739 63.5798 44.3923 62.157 45.929C60.7576 47.4391 59.3079 48.9491 57.865 50.4559C56.7137 51.6559 55.5674 52.8526 54.4512 54.0393C53.9619 54.5593 53.4507 55.0627 52.9429 55.5627C50.7995 57.6744 48.5823 59.8562 48.0561 63.2263C47.555 66.4231 47.3069 69.8015 47.0656 73.0683L47.0505 73.2683C46.8494 73.2333 46.6534 73.195 46.4338 73.1816C44.7563 73.0766 42.348 73.6616 41.0458 74.9384C40.6755 74.5617 40.2532 74.2217 39.747 73.9533C39.5308 73.84 39.2862 73.7916 39.0432 73.82C38.4868 73.885 37.9002 73.8966 37.3019 73.885C37.3606 73.555 37.4326 73.1883 37.4762 73.07C37.5851 72.8316 37.7695 72.6316 38.0024 72.3766C38.4616 71.8749 39.0901 71.1882 39.2392 69.9715C39.4135 68.5381 39.0733 67.1581 38.7398 65.9781C37.4595 61.4446 35.4886 57.0211 32.8793 52.8259C32.11 51.5892 31.4263 50.2409 30.7643 48.9391C29.4336 46.3174 28.0561 43.6073 25.8288 41.3639C23.5546 39.0705 20.8816 38.1854 19.1823 39.1505C19.0348 39.2338 18.8756 39.3555 18.7147 39.5005C15.5892 35.4604 13.7172 32.7436 11.4162 27.9168C9.76547 24.4466 6.54777 18.5764 3.56302 18.2431C2.63626 18.1398 1.79664 18.5198 1.17153 19.3115C0.0704789 20.7065 0.737481 23.4516 1.58045 26.3834C1.681 26.7317 1.76647 27.0301 1.8201 27.2484C2.86585 31.4552 5.23891 34.9837 7.53319 38.3954L8.0192 39.1205C8.81692 40.3105 9.62972 41.4739 10.4358 42.6273C13.8597 47.5258 17.0958 52.1542 18.5052 57.9611C18.8253 59.2862 18.9895 60.8562 19.1622 62.5179C19.4755 65.533 19.8426 68.8631 21.2905 71.4766C17.7444 71.5582 15.5573 72.8249 15.021 75.1834C14.4764 77.5801 14.7881 81.9386 23.005 84.1953C26.0986 85.047 29.4286 85.612 32.3648 86.1087C32.6094 86.1487 32.8709 86.2021 33.139 86.2537C33.9837 86.4204 34.9473 86.6071 35.8959 86.6071C36.6198 86.6071 37.3354 86.4987 37.9857 86.1837C39.3532 85.522 40.6017 84.0953 41.4363 82.4536C42.6916 84.9654 45.4434 85.4237 47.9438 85.8304L49.5778 86.1021C52.6011 86.6137 56.1405 87.2121 59.4889 87.2121C60.9419 87.2121 62.3581 87.1004 63.6803 86.8188C66.6416 86.1887 68.9376 83.4486 69.142 80.2985C69.2376 78.8135 68.8203 77.5918 67.9019 76.6651C66.2947 75.045 63.5295 74.7467 60.9336 74.7667C61.014 74.57 61.0911 74.3717 61.1632 74.1783C61.2872 73.8483 61.4028 73.525 61.5419 73.2816C62.3849 71.8066 63.4926 70.5165 64.6658 69.1498C65.7953 67.8331 66.9634 66.4731 67.9019 64.908C69.8342 61.6912 71.1732 58.2111 72.1251 55.5394C73.7541 50.9692 76.0701 47.3274 80.1208 42.9706C83.9937 38.8038 87.808 34.1853 89.4755 28.6268C90.0303 26.7817 89.6314 25.29 88.4147 24.6383V24.6333ZM12.4217 41.2505C11.624 40.1088 10.8196 38.9588 10.0319 37.7821L9.54258 37.0537C7.26337 33.6653 5.10986 30.4652 4.16802 26.6667C4.10768 26.4267 4.01551 26.1017 3.9049 25.7184C3.0988 22.9133 2.82396 21.2499 3.07534 20.7882C3.21611 20.6115 3.27142 20.6232 3.29991 20.6232C4.4747 20.7532 7.08238 24.4066 9.24092 28.9385C11.8184 34.3453 13.8379 37.1654 17.5282 41.8906C17.5885 41.9672 17.6689 42.0156 17.7427 42.0739C17.746 42.6273 17.8265 43.2689 18.0309 44.029C18.4935 45.7457 19.308 46.9657 20.1677 48.2575L20.642 48.9758C21.143 49.7442 21.7648 50.7942 22.4435 51.9359C23.9367 54.4527 25.6294 57.3044 26.9936 58.8645C27.431 59.3612 28.1918 59.4195 28.6963 58.9811C29.199 58.5461 29.2527 57.7878 28.8152 57.2878C27.5952 55.8927 25.8908 53.0209 24.5216 50.7142C23.8245 49.5408 23.1826 48.4591 22.6681 47.6708L22.1787 46.9307C21.3978 45.7574 20.7207 44.744 20.3604 43.4073C19.99 42.0306 20.1727 41.3505 20.3855 41.2272C20.8297 40.9839 22.4502 41.3689 24.1161 43.0456C26.0768 45.0223 27.3103 47.4474 28.6141 50.0175C29.2996 51.3659 30.0085 52.7609 30.8313 54.0843C33.3217 58.0861 35.202 62.3063 36.4204 66.6214C36.7036 67.6231 36.9701 68.6815 36.8478 69.6765C36.7941 70.1165 36.6165 70.3249 36.2227 70.7565C35.9243 71.0816 35.5523 71.4866 35.2858 72.0666C35.2791 72.0799 34.9372 72.8566 34.84 73.675C33.077 73.435 31.2352 73.0283 29.4236 72.6249C27.9974 72.3083 26.6517 72.0099 25.3713 71.7982C25.0026 71.7366 24.6691 71.7099 24.3172 71.6649C24.2887 71.6249 24.2769 71.5766 24.2434 71.5399C22.3078 69.3848 21.9307 65.7647 21.567 62.2646C21.386 60.5212 21.2151 58.8728 20.8548 57.3911C19.3398 51.1459 15.9796 46.3407 12.4217 41.2505ZM36.9349 84.022C36.1623 84.3937 34.7462 84.1187 33.61 83.8953C33.32 83.8387 33.0401 83.7853 32.7754 83.7386C29.8945 83.2503 26.6299 82.697 23.6535 81.8769C18.8588 80.5602 16.7489 78.4851 17.379 75.71C17.7125 74.2433 19.7068 73.8733 21.6291 73.8733C22.9832 73.8733 24.3004 74.0567 24.9791 74.1683C26.1942 74.3683 27.5081 74.6617 28.899 74.97C32.2826 75.7234 35.7769 76.5017 38.9091 76.2434C39.7068 76.7751 40.0856 77.5601 40.0638 78.6335C40.0236 80.8002 38.3175 83.3536 36.9349 84.022ZM66.1858 78.3468C66.4539 78.6168 66.8025 79.0968 66.7355 80.1402C66.5997 82.2369 65.1032 84.057 63.1776 84.467C59.2594 85.3004 54.3323 84.467 49.985 83.732L48.3359 83.457C44.8652 82.8936 43.3234 82.5169 43.1675 79.4818C43.1407 78.9752 43.0083 78.4751 42.8809 77.9935C42.7955 77.6718 42.5676 76.8167 42.6815 76.6917C43.2999 76.0151 44.9775 75.4917 46.2863 75.5734C46.5964 75.5934 46.8142 75.6434 46.9701 75.6984C47.1226 76.1367 47.5215 76.4667 48.0158 76.5051C48.0477 76.5084 48.0795 76.5084 48.1114 76.5084C48.2304 76.5084 48.341 76.4767 48.4499 76.4434C48.9845 76.5117 49.6331 76.6251 50.3638 76.7517C52.172 77.0684 54.2351 77.4318 56.0668 77.4318C56.712 77.4318 57.3271 77.3834 57.8935 77.2751C58.0879 77.2668 58.2572 77.2601 58.4667 77.2501C60.8263 77.1268 64.7797 76.9268 66.1858 78.3468ZM87.1645 27.9334C85.6378 33.0236 82.0262 37.3821 78.351 41.3339C74.0608 45.9507 71.5989 49.8308 69.8526 54.7327C68.9393 57.2994 67.6555 60.6362 65.8322 63.6713C64.9959 65.0614 63.9451 66.2881 62.8307 67.5864C61.6374 68.9782 60.4023 70.4165 59.4454 72.0899C59.251 72.4299 59.0784 72.8733 58.9041 73.3333C58.7516 73.74 58.465 74.4967 58.2739 74.6383C58.103 74.7433 57.8902 74.8233 57.6472 74.8833C57.4678 74.8917 57.2667 74.9033 57.1058 74.9067C56.9483 74.9117 56.8008 74.95 56.6651 75.0084C54.9138 75.105 52.4486 74.6783 50.7844 74.3867C50.2833 74.2983 49.8308 74.2233 49.4068 74.1567L49.4755 73.2416C49.7135 70.0215 49.9582 66.6914 50.4442 63.5913C50.8498 61.0029 52.6932 59.1878 54.644 57.2661C55.1735 56.7461 55.7065 56.2194 56.2193 55.6744C57.3287 54.4927 58.47 53.3026 59.6146 52.1076C61.066 50.5942 62.524 49.0741 63.9334 47.5541C65.4819 45.8824 67.0086 45.289 67.3589 45.4457C67.4427 45.484 67.7376 45.9757 67.5516 47.5408C67.0422 51.8142 61.6542 58.0211 59.8828 60.0612C59.4471 60.5629 59.5024 61.3212 60.0068 61.7546C60.5112 62.1879 61.2738 62.1329 61.7095 61.6312C64.9909 57.8511 69.4135 52.3093 69.9481 47.8258C70.1224 46.3557 69.9565 45.2523 69.5275 44.4457C70.9403 42.9489 72.1972 41.7239 73.4072 40.5505C74.7747 39.2238 76.1891 37.8538 77.8483 36.067C78.6896 35.162 79.489 34.2403 80.2833 33.3236C82.2039 31.1069 84.0189 29.0135 86.3299 27.2467C86.9718 26.7567 87.25 26.7501 87.2533 26.7317C87.3187 26.8351 87.3572 27.2867 87.1645 27.9334Z" fill="#F9F7F2"/>
<path d="M33.7507 33.0902C34.53 32.8952 35.5154 32.2052 36.6868 31.1085C34.7579 36.407 34.0121 42.1289 34.602 47.7707C34.954 51.1259 36.5427 54.8527 39.9448 55.246C40.1224 55.2677 40.3034 55.2777 40.4861 55.2777C41.6558 55.2777 42.8943 54.8526 44.1764 54.0126C45.9595 52.8426 46.8494 50.6958 47.4242 48.5091C48.284 50.0175 49.3448 51.4125 50.1677 52.1559C50.5866 52.5342 51.1698 52.9826 51.9592 53.0926C52.8223 53.1993 53.6937 52.8909 54.5551 52.1442C57.384 49.6891 57.7678 45.7423 57.1846 42.8706C56.5511 39.7455 54.835 36.9604 53.32 34.502L51.5 31.5502C54.6741 33.8119 58.1516 34.9336 61.4145 34.692C65.7349 34.3836 69.4655 31.5519 70.4878 27.8067C71.0643 25.6967 70.6218 23.2916 69.3063 21.3732C68.6728 20.4482 67.8717 19.7031 66.9734 19.1814C69.0415 17.0997 69.8308 13.7896 68.6359 11.0395C68.3845 10.4578 67.7225 10.1761 67.1226 10.3861C63.1826 11.7895 59.5258 13.2146 56.1154 14.6763C56.8796 14.1963 57.6287 13.6746 58.3745 13.0729C58.5203 12.9546 58.6359 12.8046 58.713 12.6329C59.4738 10.9478 59.1655 9.00277 57.8851 7.43105C56.4924 5.71932 54.3088 4.88429 52.2994 5.27264C52.3698 4.05093 51.9709 2.79589 51.205 1.85586C50.5246 1.0225 49.5995 0.520812 48.6041 0.442476C46.5997 0.289138 45.4953 0.869157 44.3909 2.65588C41.9977 6.53602 40.8212 10.9445 40.895 15.643C40.3487 13.6646 39.6046 11.6979 38.0108 10.2661C36.8511 9.22611 35.1651 8.67942 33.6233 8.82943C32.3597 8.95443 31.2804 9.53612 30.5833 10.4661C29.3431 12.1245 29.6263 14.2596 30.0135 15.9347C30.4961 18.0264 31.138 20.0915 31.9307 22.0882C29.871 22.7182 28.0007 24.0133 27.0153 25.5633C26.1891 26.8617 25.9846 28.2768 26.4221 29.6535C27.379 32.6669 30.9721 33.7853 33.7524 33.0869L33.7507 33.0902ZM54.8166 43.3439C55.3813 46.124 54.654 48.8691 52.9664 50.3342C52.596 50.6542 52.3698 50.7258 52.2843 50.7142C52.239 50.7075 52.1016 50.6625 51.7866 50.3792C50.4257 49.1525 48.4197 45.8173 48.3057 44.2156C48.2639 43.6206 47.7879 43.1456 47.1896 43.1023C46.5846 43.0406 46.0517 43.4589 45.9226 44.0406C45.8321 44.4473 45.745 44.8823 45.6545 45.334C45.1551 47.8124 44.5333 50.8975 42.8424 52.0076C41.8469 52.6626 40.9587 52.9443 40.2196 52.8626C38.232 52.6309 37.2432 49.8408 37.0002 47.5207C36.2008 39.8688 38.041 32.0652 42.0648 25.53C42.0581 26.3284 42.0648 27.1417 42.0815 27.9517C42.1217 29.9718 42.1636 32.0602 41.8218 33.4636C41.6642 34.1086 42.0631 34.7553 42.71 34.912C42.8055 34.937 42.901 34.947 42.9949 34.947C43.5395 34.947 44.0322 34.5786 44.1663 34.0303C44.4479 32.8786 44.5115 31.4735 44.5149 30.0168C44.6942 30.4852 44.8685 30.9585 45.0512 31.4219C45.6093 32.8386 46.1355 34.1736 46.5343 35.5987C46.6818 36.1287 47.1678 36.4754 47.6957 36.4754C47.803 36.4754 47.9119 36.462 48.0208 36.432C48.6627 36.2554 49.0381 35.592 48.8588 34.9536C48.4264 33.4119 47.8533 31.9552 47.2985 30.5452C46.9935 29.7718 46.6868 28.9934 46.4019 28.1984C46.3282 27.9934 46.2578 27.7617 46.1874 27.5351L51.257 35.757C52.7351 38.1554 54.2635 40.6388 54.8149 43.3473L54.8166 43.3439ZM66.7237 13.0796C67.0237 15.193 65.8372 17.5847 63.8764 18.4481C63.377 18.6664 63.0887 19.1914 63.1725 19.7298C63.2563 20.2681 63.692 20.6798 64.2334 20.7382C65.4283 20.8682 66.5209 21.5732 67.3103 22.7249C68.2203 24.0516 68.5454 25.7567 68.1566 27.1784C67.4108 29.9118 64.5015 32.0652 61.2385 32.2986C58.3259 32.5019 55.1266 31.3685 52.229 29.0918C50.6235 27.8317 49.2141 26.3184 47.8868 24.735C49.68 25.41 51.4715 26.0267 53.3166 26.6567C54.9724 27.2217 56.6516 27.7951 58.3761 28.4301C58.5152 28.4818 58.656 28.5051 58.7951 28.5051C59.2845 28.5051 59.7453 28.2068 59.9263 27.7234C60.1593 27.1017 59.8409 26.4117 59.2158 26.18C57.4712 25.535 55.7735 24.9566 54.0993 24.3866C52.3748 23.7983 50.6989 23.2266 49.0314 22.6049C52.529 22.2932 56.5209 21.9782 57.8985 22.0232C58.5353 22.0049 59.1169 21.5115 59.1303 20.8498C59.1454 20.1881 58.6158 19.6381 57.9488 19.6248C56.6449 19.5998 53.2731 19.8481 50.042 20.1215C54.964 17.6747 60.4693 15.3463 66.722 13.0779L66.7237 13.0796ZM46.4438 3.91426C47.0723 2.89756 47.327 2.75589 48.413 2.83756C48.8353 2.87089 49.1437 3.1459 49.328 3.37091C49.7437 3.88093 49.9565 4.63929 49.871 5.30431C49.7856 5.96433 49.5224 6.59102 49.142 7.22771C48.5102 7.93773 48.0242 8.70276 47.6505 9.28778C47.3086 9.8278 47.4494 10.5395 47.9722 10.9095C48.4968 11.2745 49.2174 11.1745 49.6163 10.6745C50.0939 10.0745 50.6252 9.40778 51.086 8.66776C51.572 8.15107 52.1033 7.76606 52.7083 7.63772C54.0205 7.35271 55.3093 8.0894 56.0014 8.93943C56.3131 9.32111 56.9567 10.2911 56.598 11.4045C55.202 12.4929 53.7172 13.3212 52.1486 14.1946C50.9151 14.883 49.6381 15.5947 48.2437 16.5097C47.2751 17.1447 46.5863 17.8547 45.9779 18.4798C45.7752 18.6881 45.5774 18.8864 45.3797 19.0781C45.9914 17.2464 46.9919 15.0113 48.3577 14.0179C48.8957 13.6263 49.013 12.8746 48.6191 12.3412C48.2253 11.8062 47.4712 11.6895 46.9332 12.0812C45.2724 13.2896 44.1345 15.5097 43.4122 17.4147C42.9798 12.4896 43.9903 7.88106 46.4388 3.91593L46.4438 3.91426ZM32.5156 11.9012C32.8826 11.4112 33.4474 11.2595 33.8579 11.2212C33.9518 11.2112 34.0473 11.2062 34.1428 11.2062C34.9456 11.2062 35.802 11.5229 36.3919 12.0512C37.7075 13.2329 38.289 15.1746 38.7716 17.0647C39.0331 18.0864 39.437 19.0364 39.9766 19.9731C38.899 19.5631 37.9253 19.0148 37.5684 18.3447C37.255 17.7581 36.5243 17.5364 35.9377 17.8447C35.3478 18.1564 35.1249 18.8814 35.4366 19.4681C36.1556 20.8198 37.7259 21.6999 39.2359 22.2649C38.2287 22.5699 37.1645 22.8082 36.0634 23.0399L34.9573 23.2782C34.8551 23.3016 34.7713 23.3549 34.6825 23.3999C34.8065 23.1016 34.8283 22.7716 34.6976 22.4699C33.7054 20.1981 32.9195 17.8181 32.3614 15.3996C32.0916 14.2279 31.8636 12.7729 32.5156 11.9012ZM29.0515 26.85C29.8995 25.5167 31.8335 24.4016 33.7557 24.1383C33.8915 24.1199 34.0088 24.0566 34.1278 23.9966C34.0339 24.2183 33.987 24.46 34.044 24.7116C34.1881 25.36 34.8316 25.7617 35.4836 25.6233L36.5662 25.39C37.4427 25.205 38.3242 25.0016 39.1973 24.7683C35.3713 29.3518 33.7943 30.6052 33.1641 30.7635C31.4681 31.1852 29.2308 30.5368 28.723 28.9351C28.5001 28.2334 28.6091 27.5517 29.0532 26.85H29.0515Z" fill="#F9F7F2"/>
</g>
<defs>
<clipPath id="clip0_291_953">
<rect width="100" height="103.101" fill="white" transform="translate(0.600037 0.418823)"/>
</clipPath>
</defs>
</svg>
