<svg width="106" height="108" viewBox="0 0 106 108" fill="none" xmlns="http://www.w3.org/2000/svg">
<g clip-path="url(#clip0_291_915)">
<path d="M24.313 38.0584C21.3772 42.8386 19.8772 45.9126 13.8127 47.1602C11.4636 47.644 7.92519 47.9595 5.6317 46.9737C6.2742 40.2289 7.30202 38.964 13.3113 36.6996C16.295 35.5745 21.9397 33.6121 24.3113 38.0583L24.313 38.0584Z" fill="#AEC02F"/>
<path d="M17.9001 21.3092C12.1046 18.451 7.54856 -1.76225 16.5757 1.66134C22.8832 4.05297 24.8253 18.224 17.9001 21.3092Z" fill="#AEC02F"/>
<path d="M36.7436 21.8322C36.6783 25.7243 42.0052 27.861 45.3611 26.9974C49.6305 25.8998 50.5088 21.0226 52.0726 17.6602C47.7472 14.4468 34.284 16.651 36.7436 21.8322Z" fill="#AEC02F"/>
<path d="M47.5489 79.6385C54.6794 91.1693 62.4946 107.91 79.4625 105.358C88.2588 104.035 93.6177 98.5363 97.065 90.5926C102.799 77.3746 103.175 56.9577 88.1574 49.9388C78.5786 45.4612 63.7125 46.6324 55.6977 53.6956C49.4637 59.191 44.3563 71.3119 47.5505 79.6403L47.5489 79.6385Z" fill="#AEC02F"/>
<path d="M25.685 23.815C25.8093 23.3408 25.8837 22.8719 25.915 22.412C26.2662 17.2457 21.1276 12.9912 16.9859 11.8848C15.2964 11.4346 13.5808 11.3419 11.9247 11.2515C10.4891 11.1745 9.13345 11.0994 7.82287 10.8118C7.40175 10.7182 6.96319 10.856 6.66755 11.1713C6.3718 11.4884 6.26289 11.9378 6.38451 12.3534L8.71011 20.4825C9.1671 22.0776 9.68455 23.8856 10.9145 25.3348C12.1318 26.7678 13.8789 27.5745 15.4195 28.2867L15.7151 28.4232C17.7639 29.3753 20.0288 29.4043 21.9295 28.5017C23.795 27.6172 25.1275 25.9537 25.685 23.815ZM16.7456 26.1916L16.445 26.0531C15.0679 25.417 13.6462 24.7591 12.7773 23.7366C11.8911 22.694 11.4699 21.2228 11.0624 19.8022L9.26649 13.5265C10.1153 13.6167 10.9603 13.6639 11.7901 13.7083C13.3936 13.7951 14.9106 13.8777 16.3542 14.2633C19.8971 15.2092 24.3577 19.1643 23.3171 23.1971C22.9463 24.6179 22.0834 25.7126 20.8849 26.2814C19.6407 26.871 18.1304 26.8402 16.7421 26.1931L16.7456 26.1916Z" fill="#F9F7F2"/>
<path d="M45.8106 10.1911L37.7182 12.5329C36.1303 12.9931 34.3287 13.5141 32.889 14.7509C31.4638 15.9734 30.6598 17.7292 29.9499 19.2776L29.8121 19.5762C28.865 21.6321 28.8345 23.9094 29.7282 25.82C30.6073 27.6937 32.2638 29.0315 34.3905 29.5902C40.1483 31.0991 45.0712 25.3743 46.2719 20.8407C46.7193 19.1445 46.811 17.4207 46.9055 15.7552C46.9833 14.3094 47.0587 12.9506 47.3457 11.6354C47.36 11.5748 47.3674 11.5154 47.3715 11.4557C47.3963 11.0912 47.2573 10.731 46.9884 10.4765C46.6748 10.1797 46.2257 10.0722 45.8106 10.1911ZM44.4603 15.6232C44.3762 17.2346 44.2914 18.7587 43.9048 20.2109C42.9629 23.7696 39.0278 28.2661 35.0103 27.2127C33.5946 26.8426 32.5057 25.9746 31.9419 24.7726C31.6177 24.0798 31.4829 23.3074 31.5367 22.517C31.58 21.88 31.7448 21.234 32.0342 20.6103L32.1723 20.3065C32.8062 18.9242 33.4621 17.4937 34.4786 16.6199C35.515 15.7303 36.9796 15.3063 38.3955 14.896L44.6429 13.0876C44.549 13.9419 44.5065 14.793 44.4603 15.6232Z" fill="#F9F7F2"/>
<path d="M12.7202 41.035C12.2711 42.7312 12.1811 44.4551 12.087 46.1155C12.0143 47.5599 11.9353 48.9218 11.6449 50.2386C11.5446 50.6613 11.6883 51.1023 12.002 51.3991C12.3156 51.696 12.763 51.8034 13.1781 51.6844L21.2705 49.3426C22.8584 48.8824 24.66 48.3615 26.1014 47.1247C27.5267 45.9006 28.3308 44.1447 29.0423 42.5965L29.1766 42.2993C29.592 41.4001 29.8314 40.4598 29.8947 39.528C29.9766 38.3237 29.7664 37.1321 29.2621 36.0574C28.3812 34.1836 26.7265 32.8458 24.5981 32.287C18.842 30.7782 13.9191 36.503 12.7184 41.0366L12.7202 41.035ZM23.98 34.6647C25.3957 35.0347 26.4863 35.9029 27.0499 37.1066C27.6361 38.3546 27.6063 39.8704 26.9577 41.2689L26.8197 41.571C26.1875 42.9534 25.5299 44.3838 24.5133 45.2576C23.4769 46.1489 22.0106 46.5728 20.5947 46.9831L14.3473 48.7915C14.4394 47.9387 14.4853 47.0879 14.5318 46.2526C14.614 44.6428 14.7005 43.1205 15.087 41.67C16.0289 38.1113 19.9622 33.6146 23.9798 34.6681L23.98 34.6647Z" fill="#F9F7F2"/>
<path d="M34.9012 37.0825C34.8062 37.9539 35.0036 38.9085 35.3861 39.6703C35.8931 40.6802 36.5604 41.612 37.2058 42.5149C37.545 42.9863 37.8811 43.4541 38.1845 43.9265C40.0134 46.7614 41.8047 49.6982 43.5111 52.6549C46.8752 58.4862 49.9961 64.5611 52.7835 70.7075C54.361 74.1841 55.8637 77.7584 57.2494 81.3247C57.4377 81.8115 58.0086 83.2844 59.455 83.4272C60.3651 83.5182 61.1962 83.0425 61.9238 82.0104C63.5901 79.6459 64.6359 76.8147 64.9536 73.9203C68.21 76.5991 73.0236 77.2429 77.8701 77.4766C78.1959 77.4936 78.5172 77.3768 78.7572 77.1536C79.0005 76.9323 79.1316 76.6314 79.153 76.2924C79.3067 72.1274 78.2002 67.887 76.0701 64.2974C79.7287 64.2929 83.3762 62.5473 85.5716 59.565C85.7144 59.3693 85.7926 59.1454 85.8081 58.9171C85.8325 58.5577 85.7007 58.1928 85.4204 57.9307C81.4675 54.2481 76.4092 52.2443 71.5201 50.3084L70.1635 49.7696C58.9219 45.2765 47.937 39.6612 37.3158 34.2331C36.9506 34.044 36.4711 34.0576 36.1149 34.261C35.1689 34.7991 34.9056 37.0691 34.9046 37.0827L34.9012 37.0825ZM69.2536 52.0555L70.6184 52.5984C74.9288 54.3049 79.3735 56.0651 82.8722 58.9639C80.6009 61.3079 76.9714 62.3874 73.8279 61.5542C73.3177 61.4185 72.779 61.6266 72.4899 62.0707C72.3721 62.2509 72.3072 62.4536 72.2932 62.6597C72.2729 62.9578 72.3595 63.2631 72.5557 63.5075C75.1013 66.7231 76.5813 70.8315 76.7084 74.9488C71.7136 74.6161 66.9821 73.6681 64.8187 70.0677C64.5249 69.5789 63.932 69.3572 63.3918 69.536C62.85 69.7148 62.5073 70.246 62.5539 70.8138C62.858 74.2313 61.8989 77.7923 59.9272 80.5913C59.8442 80.7088 59.7755 80.7932 59.7202 80.8544C59.6702 80.7637 59.6061 80.6293 59.5292 80.4324C58.126 76.8222 56.6074 73.2074 55.0123 69.6885C52.1907 63.4697 49.0338 57.3222 45.6285 51.4213C43.9022 48.4308 42.0911 45.4601 40.239 42.5911C39.9139 42.0864 39.5563 41.5847 39.1938 41.0809C38.5762 40.2192 37.9929 39.4043 37.573 38.5664C37.3885 38.1996 37.3089 37.7424 37.3363 37.3387L37.3365 37.3353C37.346 37.2709 37.3703 37.1648 37.3993 37.0384C47.6995 42.3026 58.3334 47.6938 69.2551 52.059L69.2536 52.0555Z" fill="#F9F7F2"/>
</g>
<defs>
<clipPath id="clip0_291_915">
<rect width="100" height="98.4127" fill="white" transform="translate(0.315445 100.516) rotate(-86.1106)"/>
</clipPath>
</defs>
</svg>
