<svg width="100" height="97" viewBox="0 0 100 97" fill="none" xmlns="http://www.w3.org/2000/svg">
<g clip-path="url(#clip0_291_939)">
<path d="M1.2034 77.8378C4.77959 102.548 48.9596 101.611 60.7743 84.1354C73.8016 64.8652 64.3322 48.0887 46.5278 38.381C33.4007 31.2237 16.2616 32.6225 8.00148 46.0457C5.58963 49.9648 -3.16453 74.6514 1.2034 77.8378Z" fill="#AEC02F"/>
<path d="M99.926 63.4179C99.7314 62.8805 99.1775 62.5567 98.6286 62.6384C96.8089 62.9105 94.7963 62.7102 92.8335 62.3413C92.6389 62.2345 92.421 62.2045 92.2031 62.2162C91.3615 62.0426 90.5331 61.8456 89.7414 61.6436C88.2726 61.2664 86.8654 60.7056 85.3751 60.1114C84.0976 59.6006 82.7753 59.0732 81.4064 58.6726C80.0641 58.2803 78.602 57.9949 77.0617 57.823C77.0085 57.818 76.9586 57.8363 76.9054 57.838C76.0072 56.8515 74.916 56.0704 73.8515 55.3076C72.8069 54.5598 71.8189 53.8521 71.0504 52.9908C70.6994 52.5969 70.1322 52.4801 69.6532 52.7037C68.1811 53.3914 67.1166 54.6383 65.9722 56.3007C65.6379 56.7864 65.7044 57.4441 66.1286 57.8514C66.1984 57.9181 66.2583 57.9982 66.3249 58.0683C63.77 58.3838 61.5644 58.8612 59.5634 59.5222C59.5318 59.4604 59.5168 59.3736 59.4802 59.3169C59.3239 59.0732 59.086 58.8912 58.8082 58.8094C57.233 58.3488 55.4566 58.4322 53.8864 58.5173C53.4972 58.5374 53.1163 58.5557 52.747 58.5657C52.1964 58.5808 51.7274 58.9713 51.6093 59.5105C51.2816 61.0194 51.1984 62.56 51.2117 64.0989C49.5467 65.3675 48.0032 66.7161 46.2866 68.22C45.7926 68.654 45.2753 69.0897 44.7497 69.532C41.7889 72.024 38.4456 74.8398 37.2713 78.8691C36.7074 79.2948 36.1252 79.7621 35.5281 80.2412C34.5534 81.0257 33.5437 81.8369 32.5474 82.5045C30.8059 83.6713 28.8265 84.5242 26.7324 85.4272C25.5497 85.9379 24.3238 86.4654 23.1529 87.0546C22.6189 87.3217 22.3628 87.9409 22.5524 88.5101C22.8036 89.2629 22.8385 90.1108 22.8751 91.0071C22.905 91.7148 22.935 92.4442 23.0697 93.1987C23.1346 93.5626 23.3608 93.873 23.6835 94.0466C23.8598 94.1418 24.0544 94.1885 24.2473 94.1885C24.4103 94.1885 24.5733 94.1551 24.7264 94.0883C26.2749 93.409 27.6472 92.249 28.9762 91.1273C29.743 90.478 30.4682 89.8654 31.1934 89.3714C34.4852 87.128 39.2457 84.3322 42.5857 85.9697C46.6908 87.9743 51.3249 89.9823 56.3581 91.9368C63.4306 94.6842 71.1253 92.486 77.0401 90.266C82.3378 88.2781 86.907 84.4007 91.4213 78.0663C93.1462 75.6477 94.5468 73.0906 95.9473 70.465C96.1818 70.026 96.4213 69.522 96.6725 68.9895C97.3977 67.4556 98.3009 65.5461 99.432 64.8434C99.9144 64.5429 100.122 63.9454 99.926 63.4113V63.4179ZM69.9709 55.3126C70.7543 56.0437 71.6193 56.6629 72.4626 57.2655C73.7533 58.1902 74.9742 59.0631 75.7211 60.2065C76.6891 61.6887 76.6326 62.2479 76.591 62.3847C76.4746 62.7753 75.4998 63.1976 74.6399 63.5715C74.2108 63.7568 73.7483 63.9571 73.2776 64.1924C72.9117 63.5581 72.4776 62.989 72.0517 62.4315C71.769 62.0593 71.4845 61.6887 71.2284 61.2998C70.8857 60.7807 70.5764 60.2232 70.2636 59.6657C70.0491 59.2801 69.8245 58.8912 69.5933 58.5057C69.585 58.4906 69.5767 58.4773 69.5684 58.4623C69.244 57.9231 68.9014 57.3923 68.4972 56.8966C68.9879 56.2406 69.4652 55.7015 69.9709 55.3126ZM53.7866 60.9326C53.8598 60.9292 53.933 60.9259 54.0062 60.9209C55.2204 60.8591 56.4696 60.7957 57.5441 60.9843C57.6572 61.7972 57.604 63.4163 57.5724 64.361C57.5507 65.0337 57.5308 65.6679 57.5374 66.1703C57.5391 66.3756 57.5557 66.6527 57.574 66.9715C57.6139 67.6809 57.7387 69.8374 57.426 70.2831C56.9619 70.6386 54.758 70.4216 53.913 70.3348C53.8814 69.4752 53.8249 68.6056 53.7683 67.7276C53.6203 65.4509 53.4672 63.1041 53.7866 60.9292V60.9326ZM94.5085 67.968C94.2756 68.4621 94.0544 68.9294 93.8365 69.3384C92.4742 71.8905 91.1153 74.3725 89.4736 76.6759C85.2487 82.603 81.0321 86.2083 76.2018 88.021C70.6878 90.0924 63.5454 92.1588 57.2231 89.7019C52.2513 87.774 47.6788 85.7927 43.6352 83.8165C39.2257 81.6616 33.9513 84.5943 29.8461 87.3918C29.0195 87.9559 28.2127 88.6386 27.431 89.2979C26.7224 89.8971 25.9972 90.5097 25.2703 91.0205C25.2703 90.9854 25.267 90.9504 25.267 90.917C25.237 90.2243 25.2087 89.5149 25.0823 88.7955C25.9356 88.3949 26.8172 88.0143 27.6771 87.6455C29.7796 86.7391 31.9519 85.8027 33.8781 84.5125C34.9609 83.7864 36.0121 82.9435 37.0268 82.1256C37.7137 81.5731 38.3824 81.0357 39.0228 80.5683C39.2507 80.4014 39.4137 80.1594 39.4819 79.8856C40.3501 76.3821 43.3691 73.84 46.2899 71.3797C46.8288 70.9274 47.3578 70.4817 47.9533 69.9576C49.0993 68.9528 50.2088 68.0064 51.3315 67.0917C51.3481 67.3571 51.3614 67.6258 51.3797 67.8896C51.4579 69.093 51.5361 70.2848 51.5461 71.4482C51.5511 72.0808 52.0451 72.6015 52.6755 72.6383C52.92 72.6533 53.2327 72.685 53.5853 72.7234C54.4736 72.8152 55.3169 72.8903 56.082 72.8903C57.3728 72.8903 58.4406 72.6783 59.1226 71.9873C60.1173 70.9775 60.0907 68.9745 59.9676 66.8397C59.9509 66.5592 59.9376 66.3189 59.9343 66.1386C59.9277 65.6679 59.9476 65.0754 59.9692 64.4445C60.0025 63.4513 60.0108 62.6384 59.9909 61.914C62.2364 61.1362 64.7846 60.6238 67.8817 60.32C67.9799 60.4919 68.0764 60.6639 68.1762 60.8391C68.5188 61.4517 68.8598 62.0593 69.2324 62.6268C69.5185 63.0607 69.8345 63.4763 70.1505 63.892C70.756 64.6848 71.3265 65.4343 71.6076 66.2621C71.7257 66.6143 72.0002 66.8897 72.3495 67.0116C72.4776 67.055 72.609 67.0767 72.7404 67.0767C72.9699 67.0767 73.1978 67.0116 73.3941 66.8831C74.0893 66.4291 74.8528 66.0969 75.5913 65.7764C76.9968 65.1689 78.4489 64.5379 78.8864 63.0741C79.111 62.323 78.9912 61.47 78.5737 60.4836C79.3239 60.6205 80.0507 60.7824 80.7344 60.9827C81.9952 61.3515 83.2061 61.8356 84.4902 62.3463C85.9839 62.9422 87.5308 63.5598 89.1492 63.9738C89.2956 64.0105 89.4519 64.0455 89.6 64.0839C89.5967 64.0873 89.5917 64.0906 89.5883 64.0939C86.9686 66.3423 84.7064 68.2851 81.3282 69.5954C78.9163 70.5318 76.5744 71.358 74.259 72.1275C74.931 70.7288 76.0754 68.8343 76.8022 68.0515C77.253 67.5657 77.2264 66.8063 76.744 66.3523C76.26 65.8983 75.5015 65.9216 75.0507 66.4107C73.9929 67.5474 71.7307 71.2178 71.3897 73.0555C69.8079 73.5429 68.2444 73.9886 66.6958 74.3992C66.2234 74.0186 65.5414 74.032 65.1056 74.4726C64.9909 74.5895 64.9044 74.7247 64.8461 74.8682C64.2989 75.0034 63.7434 75.157 63.1994 75.2838C63.7251 74.3308 64.1991 73.346 64.6615 72.3762C65.3901 70.8473 66.0787 69.4018 66.9469 68.1199C67.3195 67.5724 67.1765 66.8246 66.6309 66.4508C66.0837 66.0802 65.3402 66.2204 64.9676 66.7696C63.9978 68.1983 63.2377 69.794 62.5025 71.338C61.6974 73.0272 60.9257 74.6195 59.9326 75.9698C55.2936 76.8912 50.736 77.4854 46.1618 77.7408C45.5015 77.7775 44.9958 78.3434 45.0324 79.0077C45.0674 79.6486 45.5963 80.1427 46.2267 80.1427C46.2483 80.1427 46.2716 80.1427 46.2949 80.1427C52.8485 79.7755 59.3605 78.744 66.1169 77.0298C69.3089 79.5268 73.3891 79.9357 76.4662 79.9357C76.6509 79.9357 76.8322 79.9357 77.0085 79.9307C77.6688 79.9224 78.1978 79.3766 78.1895 78.7139C78.1811 78.0546 77.6455 77.5288 76.9919 77.5288H76.9752C73.7533 77.5739 71.2434 77.1316 69.279 76.1868C72.6921 75.2204 76.1901 74.0654 79.7929 72.7301C79.9875 72.8436 80.2038 72.9203 80.4499 72.9036C81.1219 72.8769 81.8106 73.0756 82.5408 73.2909C83.236 73.4995 83.9579 73.7148 84.7696 73.7699C84.906 73.7783 85.0458 73.7833 85.1871 73.7833C85.7477 73.7833 86.3448 73.7199 86.9253 73.6581C87.4443 73.603 87.9666 73.5446 88.4373 73.5446C88.4406 73.5446 88.444 73.5446 88.4473 73.5446C89.1076 73.5446 89.6432 73.0088 89.6449 72.3445C89.6449 71.6818 89.1093 71.141 88.4489 71.141C87.9766 71.121 87.2846 71.2011 86.6742 71.2679C86.0471 71.333 85.3951 71.4081 84.931 71.3714C84.5584 71.3463 84.1725 71.2529 83.7783 71.1444C86.6974 69.7323 88.8731 67.8762 91.1502 65.9216C91.6026 65.5327 92.075 65.1338 92.5491 64.7365C93.6818 64.9435 94.8395 65.0988 95.9872 65.1505C95.4217 66.0468 94.9526 67.0416 94.5118 67.9713L94.5085 67.968Z" fill="#F9F7F2"/>
<path d="M40.6728 45.7835C43.8814 52.3682 49.2457 55.79 56.2899 55.79C57.1698 55.79 58.0764 55.7366 59.0062 55.6281C65.8042 54.8452 73.0697 49.5891 73.4573 42.1464C73.8315 34.9541 71.9769 29.6312 67.7869 25.869C62.8651 21.4525 57.0135 20.7715 48.8315 23.6724C44.7081 24.4102 42.0784 27.9137 40.0491 31.2503C37.5857 35.2963 38.6452 41.6207 40.6728 45.7835ZM42.0933 32.5022C43.948 29.456 46.1086 26.56 49.3322 26.0242C49.4021 26.0125 49.4702 25.9942 49.5384 25.9725C52.5591 24.8942 55.2088 24.3501 57.5757 24.3501C60.934 24.3501 63.7234 25.445 66.1918 27.6617C69.8062 30.9048 71.4014 35.6017 71.0671 42.0196C70.746 48.1921 64.5451 52.5719 58.7351 53.2429C51.3515 54.0858 45.9939 51.2299 42.8269 44.7269C41.0221 41.0198 40.1905 35.6318 42.0933 32.5022Z" fill="#F9F7F2"/>
<path d="M77.1532 29.6279C77.3345 29.9451 77.6489 30.1621 78.0081 30.2188C78.0697 30.2288 78.1312 30.2338 78.1928 30.2338C78.4905 30.2338 78.7799 30.1237 79.0012 29.92L79.437 29.5195C81.9403 27.2177 84.7763 24.6105 87.3844 22.8596C87.6821 22.6593 87.8751 22.3372 87.91 21.9783C87.9449 21.6194 87.8185 21.2656 87.5657 21.0119C86.2483 19.6899 84.7297 18.3329 81.932 17.5133C81.4962 17.3865 81.0255 17.5183 80.7177 17.8522C80.4084 18.1893 79.9659 18.61 79.4686 19.084C77.6672 20.8032 75.4233 22.9447 75.0058 24.9193C74.7264 26.2513 75.6279 27.4781 76.423 28.5647C76.6908 28.9286 76.9569 29.2874 77.1532 29.6313V29.6279ZM81.1186 20.8232C81.413 20.5428 81.6891 20.2791 81.9336 20.0371C83.1761 20.4861 84.0577 21.0653 84.8278 21.7246C82.6555 23.3353 80.4366 25.3416 78.4024 27.2077C78.3841 27.1843 78.3674 27.161 78.3491 27.1359C77.9865 26.6419 77.3095 25.7188 77.3478 25.415C77.6106 24.1715 79.8062 22.0751 81.1169 20.8232H81.1186Z" fill="#F9F7F2"/>
<path d="M60.9572 19.8017C61.892 20.0488 62.8285 20.0972 63.7483 20.0972C64.0444 20.0972 64.3405 20.0922 64.6332 20.0872L65.4749 20.0772C66.0587 20.0772 66.556 19.6565 66.6542 19.079C67.2397 15.6623 67.7087 12.5593 68.1545 9.61833C68.5021 7.32326 68.8348 5.12668 69.1941 2.95847C69.2956 2.3509 68.9213 1.76336 68.3275 1.60313C67.1182 1.27264 65.8657 1.24092 64.6532 1.21088C63.9596 1.19252 63.2709 1.17583 62.6073 1.09738C62.2447 1.0473 61.8837 1.1775 61.6242 1.43287C61.3647 1.68992 61.235 2.05045 61.2733 2.41433C61.5477 5.06659 61.1452 7.8457 60.7194 10.7884C60.3435 13.3839 59.9559 16.0662 60.0657 18.6918C60.0873 19.2175 60.4482 19.6682 60.9572 19.8034V19.8017ZM63.0896 11.1322C63.4489 8.64689 63.8198 6.08977 63.7483 3.58606C64.0278 3.59775 64.3105 3.60442 64.5933 3.61277C65.3069 3.63113 65.9955 3.64782 66.6425 3.72293C66.3514 5.52727 66.0737 7.35831 65.7859 9.25779C65.385 11.8984 64.9659 14.6708 64.4602 17.6853C63.7533 17.6986 63.0797 17.7036 62.4426 17.6352C62.4559 15.5137 62.7786 13.2904 63.0896 11.1322Z" fill="#F9F7F2"/>
<path d="M42.0933 6.27168C42.1332 6.87758 42.1748 7.4768 42.243 8.05098C42.7054 11.9484 43.9379 15.7023 45.0557 18.9171C45.3285 19.6999 45.8059 20.7949 46.8089 21.2739C47.1648 21.4441 47.5208 21.5109 47.8767 21.5109C48.5637 21.5109 49.2473 21.2622 49.9176 21.0185C50.4715 20.8182 51.0454 20.6096 51.6958 20.4844C52.0351 20.4193 52.3278 20.2107 52.5025 19.9119C52.6771 19.6131 52.7137 19.2526 52.6056 18.9237C52.1216 17.4649 52.0683 15.9577 52.0201 14.6274C51.9968 13.9914 51.9752 13.4039 51.9153 12.8831C51.4496 8.84549 50.2936 4.99145 48.2809 0.756848C48.0347 0.236077 47.4526 -0.0426691 46.897 0.110892C45.9206 0.364601 44.9492 0.645016 43.9795 0.925431L42.4343 1.36775C42.1216 1.45622 41.8571 1.6682 41.7024 1.95529C41.5477 2.24238 41.5178 2.58122 41.6159 2.89168C41.9319 3.88314 42.0151 5.09661 42.0933 6.27168ZM44.6449 3.23719C45.2769 3.05525 45.909 2.87332 46.5411 2.69806C48.1795 6.33344 49.1375 9.68173 49.5384 13.1619C49.5916 13.6242 49.6083 14.1483 49.6299 14.7158C49.6681 15.8041 49.7147 17.0977 50.0025 18.448C49.6748 18.5532 49.3737 18.6617 49.1026 18.7618C48.6685 18.9187 48.0148 19.1591 47.8385 19.1057C47.8368 19.1057 47.6139 18.9755 47.3178 18.1276C46.2417 15.033 45.0574 11.426 44.6216 7.77057C44.5584 7.23644 44.5218 6.67728 44.4835 6.11478C44.422 5.2051 44.3604 4.27372 44.1958 3.36738L44.6449 3.23886V3.23719Z" fill="#F9F7F2"/>
<path d="M30.1938 29.7314C31.4163 30.0553 32.5723 30.3624 33.256 30.6445C33.918 30.9182 34.7131 31.1903 35.5081 31.1903C35.8924 31.1903 36.2766 31.1268 36.6475 30.9683C37.9083 30.4291 38.4073 29.1539 39.0993 27.3913L39.427 26.5668C39.6698 25.9659 39.3937 25.2798 38.8049 25.0178C37.5424 24.452 36.4063 23.6424 35.2021 22.7828C34.2257 22.0851 33.2144 21.364 32.1099 20.7682C31.8904 20.6497 31.6376 20.5061 31.3598 20.3475C29.2008 19.1241 27.2846 18.1293 25.7344 18.2678C24.5051 18.3813 23.4123 19.4062 22.732 21.077C22.0268 22.8095 21.7922 25.2949 22.9449 26.6636C24.101 28.0339 26.6775 28.8001 30.1921 29.7314H30.1938ZM24.9509 21.985C25.3435 21.0202 25.7992 20.6764 25.9589 20.6613C25.9922 20.658 26.0254 20.6563 26.0604 20.6563C27.0368 20.6563 29.0727 21.8097 30.1821 22.4406C30.4749 22.6076 30.7427 22.7578 30.9755 22.8846C31.9486 23.4104 32.8551 24.058 33.8149 24.7424C34.763 25.4184 35.7344 26.1111 36.7972 26.6969C36.4163 27.6684 36.0271 28.6198 35.7077 28.755C35.6013 28.8017 35.2337 28.8585 34.1658 28.4195C33.3342 28.0773 32.1615 27.7652 30.8042 27.4063C28.7034 26.8505 25.5314 26.0093 24.7729 25.1113C24.4636 24.7441 24.3821 23.3787 24.9493 21.985H24.9509Z" fill="#F9F7F2"/>
<path d="M35.9689 46.4778H35.9822C36.3681 46.4778 36.7307 46.2909 36.9552 45.9754C37.1798 45.66 37.2397 45.2543 37.1149 44.8871L36.9004 44.2378C36.3381 42.5253 35.568 40.1752 34.3488 39.0685C32.6788 37.5529 30.6645 37.9185 28.7167 38.269L27.9948 38.3959C25.1638 38.8699 22.1615 39.404 19.3771 40.0934C18.74 40.2519 18.3475 40.8929 18.4988 41.5355C18.6984 42.3901 18.9612 43.2681 19.2257 44.1561C19.6083 45.4346 20.0041 46.7566 20.1821 47.9734C20.2686 48.5576 20.766 48.9915 21.3548 48.9982C21.3997 48.9982 21.4446 48.9982 21.4912 48.9982C23.8165 48.9982 26.3847 48.3489 28.8697 47.7197C31.2932 47.1088 33.7982 46.4745 35.9722 46.4745L35.9689 46.4778ZM22.3578 46.5646C22.1349 45.5231 21.8222 44.4815 21.5194 43.4667C21.3864 43.0227 21.255 42.5837 21.1335 42.1481C23.5038 41.6106 26.0071 41.1666 28.3907 40.7677L29.1409 40.6358C30.9323 40.3154 31.9819 40.1635 32.7437 40.8545C33.3475 41.402 33.9263 42.9176 34.3505 44.1627C32.3611 44.363 30.2952 44.8871 28.2842 45.3929C26.1768 45.9253 24.1675 46.4344 22.3594 46.5646H22.3578Z" fill="#F9F7F2"/>
<path d="M42.742 52.3282C40.6429 51.053 37.4726 49.1318 35.3718 52.5819C34.3255 54.2978 33.7949 56.3508 33.2809 58.3354C32.92 59.7308 32.579 61.0478 32.0817 62.1895C31.9519 62.4883 31.9486 62.8238 32.0717 63.1259C32.1931 63.4263 32.431 63.6633 32.7304 63.7852C33.9363 64.2759 35.1672 64.5313 36.3565 64.7783C37.1199 64.9369 37.8834 65.0921 38.6319 65.3158C38.745 65.3508 38.8615 65.3659 38.9746 65.3659C39.4403 65.3659 39.8778 65.0921 40.0724 64.6431C40.5547 63.5348 41.1818 62.3698 41.8455 61.1329C43.0065 58.9764 44.2058 56.7464 44.7796 54.5198C44.9193 53.974 44.6648 53.4048 44.1642 53.1494C43.6984 52.9091 43.2227 52.6186 42.742 52.3282ZM39.738 59.9912C39.249 60.9009 38.7467 61.8323 38.3092 62.742C37.8219 62.6268 37.3312 62.5233 36.8405 62.4232C36.1153 62.2713 35.4167 62.1277 34.743 61.9358C35.0757 60.961 35.3402 59.9395 35.598 58.9413C36.0687 57.1253 36.5544 55.2492 37.4143 53.8338C38.1296 52.6637 38.8149 52.7538 41.5028 54.3846C41.7357 54.5248 41.9669 54.665 42.1964 54.8002C41.6243 56.4894 40.6678 58.2637 39.738 59.9896V59.9912Z" fill="#F9F7F2"/>
<path d="M82.4642 38.7381C79.1043 38.6563 78.2992 39.4892 77.737 41.4004C77.5491 42.043 77.3345 42.7691 76.6209 43.6871C76.2783 44.1278 76.2101 44.7687 76.561 45.2044C76.9087 45.64 77.4376 45.7953 77.9399 45.5566C78.9779 45.3813 84.0211 47.845 86.8804 49.6409C87.0734 49.7611 87.2946 49.8229 87.5158 49.8229C87.6605 49.8229 87.8069 49.7962 87.9449 49.7428C88.2959 49.6076 88.5637 49.3138 88.6668 48.9499C89.0511 47.5979 89.7064 46.3427 90.4 45.0108C91.0986 43.6671 91.8222 42.2784 92.2713 40.7494C92.3678 40.419 92.3179 40.0618 92.1349 39.7697C91.9519 39.4776 91.6509 39.2789 91.3115 39.2239C88.7001 38.8016 85.7477 38.7715 83.1429 38.7431L82.4642 38.7381ZM88.2776 43.8991C87.7853 44.8472 87.2796 45.817 86.8654 46.8468C85.1139 45.8437 81.9286 44.1311 79.5434 43.4651C79.7879 42.9227 79.926 42.4536 80.0341 42.0814C80.2853 41.2268 80.3102 41.1217 82.436 41.1434L83.1179 41.1517C85.1572 41.1734 87.4143 41.1968 89.4918 41.4121C89.1442 42.2383 88.7201 43.0545 88.2793 43.9008L88.2776 43.8991Z" fill="#F9F7F2"/>
</g>
<defs>
<clipPath id="clip0_291_939">
<rect width="100" height="96.8" fill="white" transform="translate(0 0.0692139)"/>
</clipPath>
</defs>
</svg>
