<svg width="24" height="25" viewBox="0 0 24 25" fill="none" xmlns="http://www.w3.org/2000/svg">
<path fill-rule="evenodd" clip-rule="evenodd" d="M5.63604 17.3332L12 23.6971L18.364 17.3332C21.8787 13.8184 21.8787 8.11998 18.364 4.60526C14.8492 1.09054 9.15076 1.09054 5.63604 4.60526C2.12132 8.11998 2.12132 13.8184 5.63604 17.3332ZM16.9497 15.9189L12 20.8687L7.05025 15.9189C4.31658 13.1853 4.31658 8.75314 7.05025 6.01947C9.78392 3.2858 14.2161 3.2858 16.9497 6.01947C19.6834 8.75314 19.6834 13.1853 16.9497 15.9189ZM12 12.9692C13.1046 12.9692 14 12.0738 14 10.9692C14 9.86465 13.1046 8.96922 12 8.96922C10.8954 8.96922 10 9.86465 10 10.9692C10 12.0738 10.8954 12.9692 12 12.9692ZM8 10.9692C8 13.1783 9.79086 14.9692 12 14.9692C14.2091 14.9692 16 13.1783 16 10.9692C16 8.76008 14.2091 6.96922 12 6.96922C9.79086 6.96922 8 8.76008 8 10.9692Z" fill="#1A2218"/>
</svg>
