<svg width="24" height="25" viewBox="0 0 24 25" fill="none" xmlns="http://www.w3.org/2000/svg">
<path fill-rule="evenodd" clip-rule="evenodd" d="M12 22.9692C6.47715 22.9692 2 18.492 2 12.9692C2 7.44639 6.47715 2.96924 12 2.96924C17.5228 2.96924 22 7.44639 22 12.9692C22 18.492 17.5228 22.9692 12 22.9692ZM12 20.9692C16.4183 20.9692 20 17.3875 20 12.9692C20 8.55096 16.4183 4.96924 12 4.96924C7.58172 4.96924 4 8.55096 4 12.9692C4 17.3875 7.58172 20.9692 12 20.9692ZM17 12.9692H13V7.96924H11V14.9692H17V12.9692Z" fill="#1A2218"/>
</svg>
