<svg width="130" height="137" viewBox="0 0 130 137" fill="none" xmlns="http://www.w3.org/2000/svg">
<g clip-path="url(#clip0_291_1072)">
<path d="M71.6687 20.9652C67.0567 20.6785 59.4327 26.2305 61.098 31.5839C62.8407 37.1892 75.434 35.6265 79.6794 34.2719C95.4714 29.2292 75.7394 14.8559 70.3394 21.4092" fill="#AEC02F"/>
<path d="M18.3047 82.9452C12.8874 79.3185 9.39271 72.9759 9.21938 66.4599C9.04605 59.9439 12.2007 53.4239 17.418 49.5159C20.17 50.6105 22.6847 52.2239 25.0847 53.9585C30.934 58.1865 36.31 63.3292 39.5927 69.7572C41.1114 72.7319 42.126 75.9799 42.5047 79.3012C42.778 81.7025 43.146 85.1518 41.558 87.2132C40.3567 88.7745 38.2567 88.9092 36.4434 88.7572C33.7234 88.5292 31.014 87.7612 28.382 87.0719C24.862 86.1492 21.3514 84.9852 18.306 82.9465L18.3047 82.9452Z" fill="#AEC02F"/>
<path d="M76.178 109.045C76.294 109.146 78.902 104.756 79.1047 104.344C79.922 102.684 80.5754 100.945 81.0554 99.1585C81.5474 97.3252 81.858 95.4438 81.9714 93.5492C82.038 92.4518 82.2767 90.9545 81.4274 90.0732C80.0127 88.6078 77.33 89.8118 75.986 90.7518C73.3674 92.5825 72.6687 95.6612 72.4634 98.7078C72.2114 102.443 73.29 106.502 76.178 109.045Z" fill="#AEC02F"/>
<path d="M106.461 87.2331C106.319 86.6891 106.154 86.1531 105.965 85.6251C105.029 83.0131 103.517 80.6171 101.607 78.6078C100.622 77.5718 98.6953 75.1558 97.03 76.1478C94.2873 77.7811 95.0633 83.0758 97.25 84.7398C99.8207 86.6944 103.266 87.5691 106.461 87.2331Z" fill="#AEC02F"/>
<path d="M104.034 108.104L105.335 107.293C100.521 108.607 96.2567 111.837 93.69 116.117C96.8367 118.144 101.018 118.941 104.355 117.244C107.693 115.547 109.494 110.908 107.429 107.785" fill="#AEC02F"/>
<path d="M67.4633 35.0718C70.5793 36.3304 74.6366 37.7278 78.4726 37.7278C80.3953 37.7278 82.2646 37.3758 83.9313 36.4785C86.8833 34.8904 88.85 31.7691 89.7753 27.2025C90.702 22.6238 88.6953 17.5331 84.6633 14.2305C84.3833 14.0011 84.09 13.8131 83.802 13.6065C87.0153 13.7425 90.2366 13.6011 93.4313 13.1345C93.7886 13.0825 94.0859 12.8331 94.202 12.4931C94.318 12.1531 94.2326 11.7745 93.9819 11.5158C92.5579 10.0505 90.4273 9.9678 88.5366 10.0131L78.018 10.2385C77.998 9.2398 78.122 7.49313 79.0113 5.86247C79.1473 5.61313 79.166 5.31847 79.0633 5.0558C78.9606 4.79313 78.7473 4.58647 78.4793 4.4958C77.338 4.1038 76.3953 4.31447 75.3126 4.5598C74.9393 4.64247 74.6513 4.94113 74.5806 5.3158C74.5753 5.3478 74.2873 7.26247 74.1486 9.02513C73.8273 8.6878 73.4846 8.31846 73.1206 7.92513C70.878 5.50247 68.0873 2.48647 64.5766 0.938468C64.1873 0.767802 63.7326 0.870468 63.458 1.1958C63.182 1.5198 63.1526 1.98647 63.386 2.34113C65.4606 5.51713 67.622 7.91313 70.198 9.84646C68.594 9.89446 66.626 10.1571 64.886 11.1158C61.3406 13.0678 59.37 17.4398 59.1833 23.7585C59.1366 25.2758 59.142 27.0318 59.7846 28.6945C61.13 32.1705 64.8126 33.9985 67.466 35.0691L67.4633 35.0718ZM77.3526 13.4545C77.0806 13.4851 76.8286 13.6331 76.6686 13.8678C74.454 17.1131 71.6606 20.0385 68.514 22.4278C69.502 18.4638 72.558 14.6038 75.382 12.3891C75.9246 12.5651 76.4193 12.5638 76.826 12.4878C76.874 12.4998 76.9193 12.5091 76.9673 12.5211C77.0953 12.8305 77.2233 13.1425 77.3526 13.4545ZM76.3953 6.28913C76.5193 6.26513 76.6353 6.24647 76.7446 6.23047C76.1686 7.8078 76.0753 9.31046 76.0953 10.2811H76.0126C76.1046 9.14646 76.29 7.26913 76.3953 6.28913ZM61.1006 23.8171C61.2153 19.9091 62.126 14.8278 65.81 12.7985C67.4273 11.9065 69.3926 11.7571 70.874 11.7571C71.0366 11.7571 71.194 11.7571 71.3433 11.7611C71.874 11.7718 72.45 11.8065 73.0433 11.8558C69.6566 14.9318 66.4846 19.7158 66.2753 24.4705C66.2593 24.8318 66.4473 25.1705 66.762 25.3478C67.078 25.5265 67.4646 25.5105 67.766 25.3118C71.166 23.0491 74.2446 20.1918 76.778 16.9625C77.298 20.8171 78.246 24.6038 79.6046 28.2518C79.882 28.9945 80.618 30.9678 82.398 31.3691C82.4673 31.3851 82.538 31.3931 82.6086 31.3931C82.8206 31.3931 83.03 31.3225 83.2006 31.1891C83.4273 31.0118 83.562 30.7411 83.5686 30.4531C83.6913 24.4078 81.53 18.5838 79.3793 13.3371C80.7846 13.9145 82.1713 14.6731 83.446 15.7171C86.8806 18.5305 88.6686 22.9945 87.8926 26.8238C87.0753 30.8598 85.4806 33.4651 83.0206 34.7905C79.7646 36.5424 75.0486 36.0651 68.182 33.2918C65.8606 32.3545 62.6486 30.7865 61.5726 28.0051C61.0606 26.6785 61.0606 25.1478 61.1006 23.8185V23.8171ZM78.6953 16.8065C80.0633 20.3798 81.254 24.1625 81.5713 28.0011C81.51 27.8571 81.4553 27.7145 81.4046 27.5811C80.1073 24.0998 79.1993 20.4851 78.6953 16.8065Z" fill="#F9F7F2"/>
<path d="M61.4833 63.0957C61.9273 51.381 57.4913 38.0584 46.126 32.7837C40.3273 30.093 33.5113 29.9384 27.8247 32.9917C27.066 33.3984 27.2447 34.609 28.0633 34.8197C28.874 35.0277 29.4607 35.4837 29.914 36.0797C27.094 35.333 24.274 34.5864 21.454 33.8397C20.3007 33.5344 19.7993 35.025 20.6833 35.6677C21.2273 36.0637 21.662 36.5504 22.0233 37.089C20.574 36.8477 19.1087 36.953 17.7007 37.429C17.3713 37.5397 17.0247 37.6864 16.6793 37.7357C16.274 37.793 15.9047 37.6517 15.5287 37.5197C14.7913 37.261 14.002 37.0424 13.222 37.2677C11.4593 37.7797 11.446 40.0237 11.1727 41.513C10.834 43.3623 10.5233 45.2157 10.238 47.073C10.1873 47.3997 10.2647 47.7183 10.45 47.961C10.01 48.0583 9.57001 48.1637 9.12068 48.209C8.65801 48.2543 7.69268 48.1703 7.69935 47.5357C7.71135 46.461 6.39001 46.2863 5.83535 47.0303C2.67802 51.2757 2.29935 57.1903 4.69135 61.873C4.14602 61.9343 3.59668 61.925 3.03402 61.765C2.69535 61.669 2.30602 61.769 2.06068 62.0223C0.426018 63.7117 0.603351 66.017 1.30868 68.1103C2.21002 70.7877 3.53002 73.409 4.87802 75.885C7.50201 80.7037 10.8913 85.0557 15.3073 88.3543C23.602 94.549 34.622 96.7356 44.6433 94.1677C45.0007 94.0757 45.198 93.8476 45.2887 93.5823C57.3553 89.1463 61.042 74.6583 61.4807 63.0943L61.4833 63.0957ZM32.6767 43.7663C34.6207 46.7143 38.7993 46.941 39.8647 50.629C40.9473 54.3743 39.0393 58.145 38.19 61.729C37.55 64.433 37.6953 67.2503 37.4033 69.993C36.1967 66.3943 34.482 62.9863 31.3233 60.681C30.6407 60.1823 29.9047 59.745 29.13 59.3903C29.046 59.1277 28.878 58.9103 28.6593 58.785C28.69 58.0983 28.7567 57.4677 28.462 56.717C28.0967 55.781 27.482 54.989 26.9287 54.161C26.2167 53.0943 25.8207 52.0957 25.8153 50.7903C25.81 49.3103 25.914 47.833 25.8807 46.3517C25.8073 43.1503 25.646 39.4397 24.0273 36.5917C26.35 37.2064 28.6727 37.8224 30.9967 38.437C31.5433 40.3024 31.798 42.4343 32.6767 43.7663ZM12.9793 42.7103C13.126 41.8957 13.2767 41.0837 13.434 40.2717C13.51 39.8757 13.4553 39.189 13.9633 39.173C14.5967 39.153 15.2193 39.5797 15.842 39.6863C16.606 39.817 17.326 39.6624 18.05 39.4197C19.4713 38.9437 20.8353 38.781 22.3033 39.169C22.5647 39.2383 22.7847 39.1917 22.974 39.0984C23.2807 40.041 23.4673 41.0317 23.5887 41.9783C23.9633 44.9223 23.8047 47.8383 23.8167 50.7903C23.8207 51.905 23.9913 52.973 24.49 53.9783C24.9793 54.9677 25.7113 55.8037 26.2593 56.757C26.5553 57.2717 26.798 57.7783 26.77 58.385C26.766 58.4583 26.754 58.5317 26.7433 58.605C26.206 58.497 25.6593 58.4317 25.1073 58.4197C23.894 58.3917 22.802 58.785 21.7247 59.201C20.822 58.957 20.8207 57.6597 20.6807 56.9023C20.5233 56.0543 20.2273 55.2437 19.834 54.4757C19.0073 52.8637 17.7513 51.4237 16.4793 50.145C15.2833 48.9437 13.83 47.8877 12.0873 47.7823C12.114 47.7237 12.1567 47.673 12.1673 47.6063C12.418 45.9717 12.6887 44.3397 12.9807 42.7117L12.9793 42.7103ZM6.60068 61.2597C4.57668 57.5943 4.67668 53.0837 6.65668 49.465C7.39801 50.041 8.44735 50.2903 9.39801 50.177C10.406 50.0557 11.4327 49.601 12.4527 49.8383C13.4073 50.061 14.198 50.713 14.886 51.381C16.2713 52.7263 17.73 54.3357 18.414 56.1703C18.8513 57.345 18.9113 58.8677 19.5527 59.9383C19.0447 60.065 18.526 60.153 17.9847 60.141C15.3567 60.085 13.07 58.9423 10.4233 59.7237C9.16868 60.0943 7.91401 60.8317 6.63135 61.3503C6.61801 61.3197 6.61935 61.289 6.60201 61.2583L6.60068 61.2597ZM17.946 87.7716C13.8633 85.0877 10.5927 81.4583 8.02468 77.321C6.73135 75.237 5.60868 73.0517 4.59402 70.8197C3.78068 69.0303 1.91535 65.7957 3.16602 63.8343C5.05002 64.1343 6.77135 63.4423 8.51801 62.653C9.82201 62.0637 11.142 61.4063 12.602 61.377C13.9727 61.349 15.306 61.7903 16.6487 61.9983C17.886 62.189 19.1153 62.221 20.318 61.8263C21.414 61.4663 22.3913 60.8157 23.5273 60.5663C26.2527 59.9677 29.0553 61.2343 31.0607 63.0277C35.374 66.885 36.1633 73.1703 37.706 78.433C38.542 81.2837 39.558 84.0757 40.7287 86.805C41.338 88.2237 41.9887 89.625 42.686 91.0023C42.91 91.445 43.1153 91.9583 43.3833 92.4077C34.7033 94.4117 25.3913 92.6663 17.946 87.7716ZM45.3927 91.4063C45.262 91.3303 45.1233 91.2783 44.974 91.2583C44.6527 90.7357 44.2487 89.6663 44.1353 89.4396C43.77 88.701 43.4167 87.957 43.0767 87.2077C42.3473 85.5983 41.682 83.961 41.078 82.301C40.0927 79.5957 39.3327 76.833 38.5913 74.0543C40.0847 69.801 39.266 65.149 40.502 60.8077C41.5767 57.0357 43.0393 53.041 41.4713 49.177C39.8927 45.2863 34.9313 45.0143 33.626 41.0703C32.8153 38.621 32.526 35.577 30.578 33.9077C40.118 30.0584 50.5327 35.7824 55.4273 44.369C61.1407 54.3903 60.4687 67.729 56.6753 78.3157C54.6793 83.885 50.9553 89.0757 45.3913 91.405L45.3927 91.4063Z" fill="#F9F7F2"/>
<path d="M31.97 86.9251C23.9633 83.6384 17.194 77.6544 12.8727 70.1691C12.2287 69.0544 10.5007 70.0611 11.146 71.1784C15.7473 79.1477 22.9367 85.3637 31.4393 88.8544C32.6287 89.3424 33.1473 87.4091 31.9713 86.9264L31.97 86.9251Z" fill="#F9F7F2"/>
<path d="M48.858 43.3266C51.262 47.6492 52.718 52.4239 53.206 57.2919C53.1606 57.1999 53.114 57.1079 53.042 57.0252C51.766 55.5452 50.49 54.0652 49.2126 52.5852C48.87 52.1879 48.146 52.2079 47.798 52.5852C47.4086 53.0092 47.4326 53.5759 47.798 53.9999C49.074 55.4799 50.35 56.9599 51.6273 58.4399C51.97 58.8372 52.694 58.8172 53.042 58.4399C53.146 58.3266 53.2153 58.2026 53.262 58.0746C53.7353 64.0879 52.746 70.2106 50.2233 75.7719C49.6953 76.9345 51.4193 77.9532 51.95 76.7812C56.9326 65.7959 56.4526 52.8719 50.5846 42.3172C49.9593 41.1919 48.2313 42.1999 48.858 43.3266Z" fill="#F9F7F2"/>
<path d="M25.4607 82.8517C25.762 84.1023 27.6913 83.573 27.3886 82.3197C26.6833 79.3903 25.878 76.4877 24.974 73.613C24.5887 72.389 22.658 72.9117 23.046 74.145C23.95 77.0197 24.7553 79.9223 25.4607 82.8517Z" fill="#F9F7F2"/>
<path d="M125.261 74.9277C123.583 72.917 123.082 68.657 122.982 67.6037L122.993 67.5797C123.049 67.5143 123.098 67.4423 123.135 67.361C123.162 67.3023 123.163 67.241 123.178 67.1797L125.533 62.117C125.643 61.8783 125.651 61.605 125.555 61.361C125.459 61.117 125.266 60.9223 125.023 60.8237C124.999 60.8143 124.714 60.6983 124.238 60.5037C124.513 60.1063 124.767 59.6263 124.906 59.105C125.809 55.7063 122.026 53.0037 117.273 50.7597C118.187 49.1503 117.978 46.913 116.649 45.545C115.087 43.9357 112.322 43.8544 110.645 45.4677C110.301 45.8997 109.669 46.701 109.639 47.6997C103.003 45.513 99.0487 45.773 97.8887 48.5024C97.762 48.801 97.7033 48.9463 97.5913 49.2303L97.5807 49.2583C97.2327 49.097 96.902 48.941 96.614 48.8023C96.138 48.5703 95.5633 48.773 95.3327 49.2477C94.202 51.5783 93.222 54.4597 93.15 54.693C93.118 54.8383 92.3327 58.2783 88.3207 59.049C82.8553 60.0983 75.9993 63.0583 73.142 68.2183C70.1073 73.6957 66.73 81.1877 63.1553 89.117C61.79 92.145 60.3833 95.2637 58.9367 98.4063C57.234 102.101 55.3047 106.289 55.322 110.82C55.3313 112.836 55.7673 114.392 56.6553 115.578C57.894 117.233 59.9153 117.966 61.39 118.5C67.2927 120.642 73.2047 123.421 78.922 126.109C86.022 129.446 93.3633 132.898 100.85 135.22C102.283 135.664 103.833 136.082 105.331 136.082C106.482 136.082 107.603 135.836 108.618 135.164C110.218 134.102 111.015 132.242 111.599 130.881C113.306 126.894 115.253 122.813 117.314 118.493C121.681 109.34 126.195 99.873 128.613 90.7663C129.171 88.6623 130.582 81.2997 125.262 74.929L125.261 74.9277ZM111.719 48.2183C111.455 47.861 111.419 47.5744 112.057 46.761C112.882 45.973 114.445 46.033 115.271 46.8837C116.021 47.653 116.123 49.0224 115.561 49.9023C115.414 49.8757 115.218 49.8184 114.997 49.7437C114.475 49.5224 113.953 49.305 113.427 49.093C113.415 49.0877 113.405 49.0837 113.393 49.0797C112.854 48.8263 112.279 48.533 111.721 48.2197L111.719 48.2183ZM99.3753 49.9384C99.4807 49.6704 99.5353 49.533 99.654 49.253C100.462 47.3504 105.389 47.949 112.525 50.801C113.093 51.0703 113.678 51.3144 114.235 51.501C117.738 52.9783 123.782 55.857 123.05 58.6117C122.913 59.1263 122.571 59.5623 122.39 59.7503C117.225 57.641 105.711 52.909 99.33 50.0543L99.3753 49.9384ZM96.6567 50.9477C103.101 53.9503 119.301 60.569 123.366 62.2223L121.758 65.6797C117.61 63.7903 113.639 62.1717 109.798 60.613C105.233 58.761 100.505 56.8317 95.2833 54.3823C95.5833 53.5557 96.0873 52.2223 96.6553 50.9477H96.6567ZM126.755 90.273C124.385 99.2077 119.909 108.59 115.579 117.665C113.51 122.004 111.554 126.101 109.833 130.124C109.199 131.598 108.593 132.874 107.555 133.562C105.917 134.648 103.527 134.04 101.417 133.385C94.0553 131.102 86.7767 127.68 79.7367 124.37C73.9807 121.664 68.0273 118.866 62.042 116.693C60.4247 116.108 59.018 115.532 58.1913 114.425C57.5593 113.58 57.2473 112.397 57.242 110.809C57.2247 106.705 59.0607 102.722 60.6793 99.2077C62.1287 96.061 63.538 92.9357 64.9047 89.9037C68.4633 82.0103 71.8233 74.5557 74.822 69.1463C77.3607 64.5623 83.8753 61.8557 88.6833 60.933C92.462 60.2077 94.0527 57.6503 94.662 56.2077C99.8513 58.6343 104.547 60.553 109.082 62.393C113.106 64.0263 116.933 65.5863 121.055 67.4663C121.055 67.477 121.049 67.4863 121.05 67.497C121.066 67.737 121.478 73.3877 123.791 76.1583C128.519 81.8223 127.259 88.3943 126.761 90.2743L126.755 90.273Z" fill="#F9F7F2"/>
<path d="M111.775 98.1703C111.326 98.3983 110.882 98.625 110.457 98.7983C109.578 99.1557 106.957 99.261 104.423 99.3637C100.785 99.509 97.0206 99.6623 95.2686 100.545C87.7006 104.356 84.5153 112.324 81.6646 120.848C81.6193 120.984 81.6046 121.126 81.6219 121.266C81.8993 123.566 85.4219 125.41 86.1246 125.757C86.3179 125.853 86.5353 125.88 86.7459 125.837C86.7819 125.829 90.3539 125.086 92.1246 124.981C93.5393 124.901 94.9619 125.229 96.4673 125.574C97.8726 125.897 99.3233 126.23 100.826 126.23H100.875C107.266 126.198 111.647 120.286 113.455 115.234C114.41 112.568 114.973 109.761 115.517 107.044C116.062 104.324 116.627 101.512 117.579 98.9143C117.705 98.573 117.627 98.1917 117.378 97.9277C115.725 96.1623 113.442 97.321 111.775 98.1703ZM113.633 106.666C113.102 109.314 112.553 112.052 111.646 114.586C110.046 119.056 106.262 124.281 100.863 124.31C99.5513 124.313 98.2699 124.017 96.8966 123.702C95.4939 123.38 94.0499 123.048 92.5553 123.048C92.3753 123.048 92.1939 123.053 92.0126 123.064C90.4153 123.157 87.6473 123.694 86.6859 123.888C85.4619 123.232 83.8526 122.072 83.5659 121.208C86.3619 112.874 89.2726 105.712 96.1299 102.258C97.5113 101.562 101.386 101.405 104.498 101.281C107.443 101.162 109.987 101.06 111.177 100.577C111.649 100.385 112.143 100.136 112.643 99.8823C113.953 99.2183 114.882 98.7863 115.525 98.965C114.671 101.488 114.143 104.116 113.633 106.666Z" fill="#F9F7F2"/>
<path d="M90.7979 99.6357C92.4299 93.733 91.082 89.037 86.79 85.673C86.426 85.389 85.7753 84.7557 85.022 84.025C81.5166 80.6143 78.6806 78.0637 76.798 78.7557C72.03 80.505 65.846 90.1717 64.8806 95.8423C64.5806 97.5943 64.3046 99.6343 64.826 101.652C65.2193 103.173 66.2153 104.709 67.3686 106.486C68.9686 108.954 70.9593 112.025 72.1713 116.317C72.2526 116.604 72.4606 116.836 72.7366 116.948C72.8513 116.994 72.974 117.017 73.0953 117.017C73.2633 117.017 73.4313 116.973 73.5793 116.885C74.4233 116.392 75.7873 116.196 77.106 116.006C78.438 115.813 79.814 115.616 80.89 115.092C81.074 115.002 81.2246 114.856 81.3206 114.674C82.014 113.352 83.3886 111.48 84.8446 109.494C87.274 106.184 90.0259 102.432 90.7979 99.6357ZM79.7846 113.484C78.9886 113.796 77.8953 113.954 76.834 114.106C75.7633 114.261 74.6673 114.418 73.702 114.745C72.4046 110.726 70.5193 107.818 68.9806 105.444C67.9193 103.805 67.002 102.392 66.686 101.173C66.2593 99.5223 66.5073 97.7237 66.774 96.1663C67.686 90.8077 73.7766 81.9103 77.4513 80.561C77.4793 80.5557 77.51 80.5517 77.5433 80.5517C78.698 80.5517 82.4326 84.1863 83.6833 85.4023C84.5086 86.205 85.1606 86.8383 85.606 87.1863C89.2793 90.065 90.3726 93.9703 88.9473 99.1263C88.2699 101.581 85.6273 105.182 83.2966 108.361C81.8993 110.266 80.574 112.072 79.7846 113.484Z" fill="#F9F7F2"/>
<path d="M87.246 77.165C87.79 80.205 88.3513 83.3503 89.9807 85.6157C92.7647 89.4383 97.37 91.9157 102.003 92.0783C102.983 92.1117 105.157 93.0637 107.258 93.9837C108.433 94.4983 109.649 95.0303 110.789 95.465C110.899 95.5063 111.015 95.5277 111.131 95.5277C111.286 95.5277 111.439 95.4917 111.579 95.417C115.813 93.1783 115.157 89.4423 114.522 85.829C114.347 84.837 114.167 83.8104 114.081 82.7984C113.67 78.001 110.901 72.245 105.642 70.1957C102.475 68.9624 94.3673 66.8224 88.8673 66.2744C88.6527 66.2544 88.4393 66.3037 88.258 66.4184C87.0847 67.1637 85.7473 68.8197 85.278 70.109C85.1673 70.4144 85.218 70.7544 85.414 71.0157C86.3753 72.2917 86.798 74.6597 87.2473 77.1677L87.246 77.165ZM89.03 68.2197C94.358 68.8037 101.945 70.8144 104.945 71.9824C109.434 73.7317 111.806 78.7557 112.167 82.9597C112.261 84.0557 112.449 85.125 112.63 86.1583C113.27 89.7997 113.518 91.9997 111.054 93.5063C110.077 93.1197 109.037 92.6637 108.027 92.2223C105.553 91.1397 103.417 90.2037 102.069 90.157C98.0127 90.0157 93.9753 87.841 91.5353 84.489C90.1647 82.581 89.642 79.6557 89.1353 76.825C88.6913 74.341 88.27 71.981 87.2727 70.3397C87.6647 69.5984 88.3913 68.7184 89.03 68.2197Z" fill="#F9F7F2"/>
</g>
<defs>
<clipPath id="clip0_291_1072">
<rect width="128.409" height="135.224" fill="white" transform="translate(0.795288 0.857178)"/>
</clipPath>
</defs>
</svg>
