<svg width="135" height="163" viewBox="0 0 135 163" fill="none" xmlns="http://www.w3.org/2000/svg">
<g clip-path="url(#clip0_291_1093)">
<path d="M21.9889 89.6384C20.3289 94.989 18.9436 100.424 17.8409 105.916C21.9956 106.162 26.0796 104.932 30.0595 103.716C33.9235 102.534 37.7875 101.354 41.6501 100.173C42.2421 99.9917 42.8501 99.8023 43.3288 99.4117C43.9488 98.905 44.2728 98.1277 44.5461 97.373C45.8448 93.789 46.5421 89.9891 46.6021 86.1771C46.6154 85.3171 46.5714 84.3851 46.0314 83.7158C45.6368 83.2278 45.0394 82.9611 44.4621 82.7158C42.1755 81.7465 39.8515 80.8665 37.4982 80.0771C35.4315 79.3838 33.2529 78.5331 31.0795 78.2585C28.0409 77.8731 26.4982 80.0185 25.0569 82.3651C23.6689 84.6264 22.7729 87.1131 21.9903 89.6371L21.9889 89.6384Z" fill="#AEC02F"/>
<path d="M9.54907 33.5281C9.49307 34.4694 9.45174 34.7561 9.5264 35.6947C9.83573 39.56 11.1784 42.64 13.333 45.8707" stroke="#F9F7F2" stroke-width="1.91999" stroke-linecap="round" stroke-linejoin="round"/>
<path d="M22.2489 43.228C20.9262 42.8 19.3876 42.576 17.9929 42.6707C15.7289 42.8254 13.8116 44.8507 13.0103 46.8867C12.4076 48.4187 12.7103 50.2933 13.8076 51.5293C14.213 51.9853 14.7196 52.3706 14.985 52.9186C15.6223 54.2333 14.637 55.9106 15.2663 57.2293C16.2823 59.3599 19.8436 58.1453 21.6316 59.6866C22.1742 60.1546 22.4836 60.8279 22.8996 61.4106C24.2222 63.2626 26.7795 64.1306 28.9555 63.4639C29.9422 63.1626 30.9235 62.5746 31.9315 62.7892C33.1675 63.0532 33.8182 64.3626 34.6368 65.3266C36.1768 67.1399 38.8408 67.9052 41.1088 67.1879C43.0275 66.5812 44.8194 65.0092 46.7808 65.4612C47.5674 65.6426 48.2421 66.1372 48.9914 66.4359C52.0154 67.6412 55.798 64.6386 55.3114 61.4199C55.09 59.9613 54.1821 58.6173 54.2661 57.1453C54.3527 55.6413 55.4394 54.42 56.2847 53.1733C57.13 51.9266 57.762 50.2293 56.9367 48.9693C56.6194 48.4853 56.118 48.132 55.8634 47.6133C55.3727 46.6147 55.9487 45.4574 56.2687 44.392C57.0154 41.9107 56.218 39.0347 54.302 37.2907C53.2514 36.3347 51.7154 35.7081 50.4021 36.2534C49.5487 36.6081 48.9527 37.3814 48.2181 37.9414C47.4834 38.5014 46.3714 38.8214 45.6754 38.2147C45.9008 36.8521 44.2248 35.8094 42.8701 36.0787C41.5155 36.3481 40.4915 37.4227 39.5301 38.4147C38.5688 39.4067 37.4582 40.428 36.0808 40.5374C35.1888 40.608 34.3008 40.2774 33.4102 40.3587C32.3488 40.4547 31.5049 41.084 30.6955 41.8134" stroke="#F9F7F2" stroke-width="1.91999" stroke-linecap="round" stroke-linejoin="round"/>
<path d="M49.6568 18.6615C49.6622 15.6562 49.1968 12.6495 48.2808 9.78687C40.2222 10.1802 32.1769 10.8509 24.1636 11.7962C21.7183 12.0842 19.273 12.4015 16.8583 12.8935C15.2797 13.2148 13.9357 13.6362 12.7184 14.7308C11.1424 16.1482 9.27439 19.0188 10.1864 21.2428C10.6544 22.3855 11.7557 22.6508 12.885 22.6788C15.2237 22.7361 17.5757 22.6615 19.9143 22.6255C24.677 22.5521 29.4423 22.3735 34.1809 21.8641C36.8316 21.5788 39.4729 21.1908 42.0862 20.6601C43.3649 20.4001 44.6355 20.1068 45.8968 19.7761C46.2568 19.6815 49.6555 18.8961 49.6568 18.6615Z" stroke="#F9F7F2" stroke-width="1.91999" stroke-linecap="round" stroke-linejoin="round"/>
<path d="M10.2811 16.2642C7.73711 15.2016 4.82513 13.6776 4.4798 10.9429C4.23713 9.01493 5.48112 7.13894 7.11311 6.08428C8.7451 5.02962 10.7078 4.63895 12.6251 4.31895C22.253 2.70696 32.0383 2.3243 41.7929 1.9443C45.5036 1.8003 49.4222 1.70164 52.6835 3.47629C54.9155 4.69095 56.7795 7.2256 56.0502 9.66026C55.7795 10.5629 55.1888 11.3296 54.6102 12.0749C52.9968 14.1496 51.3835 16.2256 49.7702 18.3002" stroke="#F9F7F2" stroke-width="1.91999" stroke-linecap="round" stroke-linejoin="round"/>
<path d="M11.3077 22.6428C8.77838 24.0641 6.84372 25.5441 4.73174 27.5348C4.05841 28.1694 3.36508 28.9294 3.34908 29.8548C3.32108 31.4161 5.12507 32.2934 6.65572 32.6041C12.973 33.8867 19.4956 32.2094 25.6143 30.1801C34.1209 27.3601 41.7315 22.8428 49.6568 18.6602" stroke="#F9F7F2" stroke-width="1.91999" stroke-linecap="round" stroke-linejoin="round"/>
<path d="M29.5143 33.6108C30.0796 32.8414 31.0529 32.4454 32.0063 32.3974C33.0703 32.3441 34.1503 32.6921 34.9836 33.3561" stroke="#F9F7F2" stroke-width="1.91999" stroke-linecap="round" stroke-linejoin="round"/>
<path d="M13.889 37.4414C14.865 36.2974 16.6117 35.9694 17.9197 36.6854" stroke="#F9F7F2" stroke-width="1.91999" stroke-linecap="round" stroke-linejoin="round"/>
<path d="M29.157 52.0161C30.5636 52.3721 32.081 52.2721 33.429 51.7374C34.7769 51.2027 35.9489 50.2334 36.7289 49.0107" stroke="#F9F7F2" stroke-width="1.91999" stroke-linecap="round" stroke-linejoin="round"/>
<path d="M51.1954 27.9975C51.6101 27.4069 52.2381 26.9602 52.9434 26.8055C53.6488 26.6509 54.4234 26.8002 54.9927 27.2429C55.8887 27.9389 56.1394 29.2855 55.6967 30.3308C55.2541 31.3762 54.2221 32.1042 53.1128 32.3468C52.9288 32.3868 52.7314 32.4202 52.5874 32.5442C52.4568 32.6575 52.3928 32.8268 52.3421 32.9922C52.0114 34.0508 51.9714 35.1975 52.2274 36.2761" stroke="#F9F7F2" stroke-width="1.91999" stroke-linecap="round" stroke-linejoin="round"/>
<path d="M50.4034 17.8203C50.2128 17.931 50.1301 18.1976 50.2261 18.3976C51.1114 18.059 52.0874 17.9576 53.0234 18.1043C53.3007 18.1483 53.5994 18.2283 53.7634 18.455C53.9087 18.6563 53.9141 18.923 53.9967 19.1576C54.2994 20.007 55.4327 20.1243 56.1821 20.6243C56.9621 21.1443 57.3301 22.1616 57.1967 23.0883C57.1274 23.5709 56.9394 24.0603 57.0634 24.5323C57.2474 25.2323 58.0114 25.5723 58.5767 26.0243C59.8327 27.0309 60.1794 29.0042 59.342 30.3789C58.986 30.9629 58.4407 31.4656 58.326 32.1389C58.162 33.1002 58.942 34.0309 58.794 34.9949C58.6167 36.1522 57.2514 36.7189 56.7167 37.7602C56.4727 38.2362 56.4181 38.7842 56.3674 39.3162" stroke="#F9F7F2" stroke-width="1.91999" stroke-linecap="round" stroke-linejoin="round"/>
<path d="M44.2315 22.6655C43.9782 23.2589 43.7208 23.8775 43.7448 24.5228C43.7688 25.1682 44.1608 25.8482 44.7915 25.9842C45.1622 26.0642 45.5422 25.9508 45.9155 25.8882C46.2888 25.8255 46.7168 25.8282 46.9928 26.0868C47.3502 26.4202 47.2995 27.0268 47.6222 27.3935C48.0262 27.8535 48.7541 27.7148 49.3661 27.7228C49.8781 27.7295 50.3875 27.8722 50.8288 28.1308" stroke="#F9F7F2" stroke-width="1.91999" stroke-linecap="round" stroke-linejoin="round"/>
<path d="M24.7463 40.228C23.049 40.9414 22.1823 42.94 22.257 44.78C22.273 45.1613 22.3223 45.5467 22.4677 45.8987C22.6877 46.428 23.1103 46.8493 23.5757 47.1853C24.4583 47.8227 25.621 48.2013 26.645 47.832C27.2436 47.6173 27.7303 47.172 28.1543 46.6987C29.585 45.1 30.4956 42.88 30.001 40.792" stroke="#F9F7F2" stroke-width="1.91999" stroke-linecap="round" stroke-linejoin="round"/>
<path d="M30.0316 64.2587C29.4303 66.6747 28.8316 69.2387 29.5743 71.616C30.0569 73.1627 31.0863 74.5013 32.3316 75.536C34.9262 77.6907 38.4222 78.56 41.7915 78.4213C45.1608 78.2827 48.4302 77.2093 51.5101 75.8387C53.7261 74.852 56.0714 73.476 56.7728 71.1534C57.1848 69.7934 56.9488 68.3214 56.5741 66.9507C56.2928 65.9227 55.9354 64.9161 55.5048 63.9414" stroke="#F9F7F2" stroke-width="1.91999" stroke-linecap="round" stroke-linejoin="round"/>
<path d="M29.4863 73.4854L21.881 75.3227C19.2623 75.9547 16.6183 76.5973 14.2077 77.8C9.23972 80.28 5.65441 84.9986 3.56909 90.1453" stroke="#F9F7F2" stroke-width="1.91999" stroke-linecap="round" stroke-linejoin="round"/>
<path d="M21.8329 82.4492C26.9475 83.8425 32.1955 84.7465 37.4821 85.1465" stroke="#F9F7F2" stroke-width="1.91999" stroke-linecap="round" stroke-linejoin="round"/>
<path d="M15.6263 87.3892C21.8223 90.5291 29.0369 90.7358 35.9822 90.8771" stroke="#F9F7F2" stroke-width="1.91999" stroke-linecap="round" stroke-linejoin="round"/>
<path d="M13.285 94.2598C20.997 97.4037 29.6289 97.0224 37.9449 96.5891" stroke="#F9F7F2" stroke-width="1.91999" stroke-linecap="round" stroke-linejoin="round"/>
<path d="M57.7261 67.0212C64.502 63.7186 71.8927 61.6839 79.4033 61.0532C82.6353 60.7812 86.7206 63.8946 87.8672 66.9292" stroke="#F9F7F2" stroke-width="1.91999" stroke-linecap="round" stroke-linejoin="round"/>
<path d="M29.0062 155.711C36.8622 144.301 70.3913 92.7864 78.6099 81.6012C82.0859 76.8718 85.1006 71.8025 88.9645 67.3812C91.2285 64.7919 92.8005 62.2853 94.2285 59.1186C96.6458 53.756 92.3032 50.5813 93.0165 45.2934C93.9392 38.4507 97.5778 31.7708 100.939 25.8708C102.648 22.8708 104.643 17.6322 107.714 15.6975C109.975 14.2722 111.63 13.0709 111.808 16.0882C111.936 18.2402 108.856 22.6415 107.818 24.3642C105.354 28.4495 97.9538 38.0494 99.5445 43.5121C102.002 51.9533 108.808 37.9814 109.739 35.5961C111.032 32.2801 118.903 17.4175 121.035 18.7095C128.168 23.0322 107.139 45.144 108.055 50.4333C115.356 59.096 123.206 35.2761 128.51 28.7975C130.575 26.2735 133.904 22.0935 133.344 28.4761C132.888 33.6708 127.298 41.0334 124.688 45.688C122.079 50.3427 119.723 55.6213 114.608 57.7306C110.792 59.304 106.815 59.2226 103.01 60.3719C98.1738 61.8319 94.7285 68.4732 91.8312 72.8092C86.7846 80.3638 80.0499 88.4944 75.6006 96.4037C72.9233 101.162 43.8648 145.474 41.0635 150.171C39.3715 153.009 37.5662 157.725 34.9435 159.891C31.4435 162.782 30.7235 159.935 29.0062 155.711Z" stroke="#F9F7F2" stroke-width="1.91999" stroke-linecap="round" stroke-linejoin="round"/>
<path d="M2.58908 91.6106C1.76109 98.6706 1.70242 105.745 1.70242 112.981C1.70242 119.392 4.12907 134.644 1.25842 139.053" stroke="#F9F7F2" stroke-width="1.91999" stroke-linecap="round" stroke-linejoin="round"/>
<path d="M24.7582 112.45C24.7582 117.7 25.6462 123.816 24.3142 128.856" stroke="#F9F7F2" stroke-width="1.91999" stroke-linecap="round" stroke-linejoin="round"/>
<path d="M65.5487 90.7239C65.474 92.9919 66.1913 95.0945 65.9927 97.3745" stroke="#F9F7F2" stroke-width="1.91999" stroke-linecap="round" stroke-linejoin="round"/>
<path d="M91.7085 74.3186C92.0512 83.6532 91.2645 93.2398 91.2645 102.64C91.2645 109.565 92.3379 116.778 92.1512 123.534" stroke="#F9F7F2" stroke-width="1.91999" stroke-linecap="round" stroke-linejoin="round"/>
<path d="M65.9927 112.45C65.9927 119.562 68.8607 128.701 59.342 128.412" stroke="#F9F7F2" stroke-width="1.91999" stroke-linecap="round" stroke-linejoin="round"/>
</g>
<defs>
<clipPath id="clip0_291_1093">
<rect width="134.071" height="161.114" fill="white" transform="translate(0.297729 0.912354)"/>
</clipPath>
</defs>
</svg>
