<svg width="143" height="171" viewBox="0 0 143 171" fill="none" xmlns="http://www.w3.org/2000/svg">
<g clip-path="url(#clip0_291_1034)">
<path d="M30.8729 157.928C30.6649 159.561 30.3503 161.387 29.0089 162.341C27.7396 163.244 26.0196 163.029 24.4836 162.775C20.073 162.047 21.589 161.32 17.1784 160.592C16.301 160.447 15.3504 160.264 14.757 159.6C14.165 158.937 14.0877 157.975 14.0664 157.088C13.9117 151.271 14.761 145.479 15.6104 139.723C16.4397 134.09 18.805 128.454 19.6357 122.819C20.8437 114.627 27.0983 92.2298 31.0556 93.5578C33.0809 94.2378 35.8329 95.8871 37.9542 96.1338C38.1409 105.698 36.4036 114.167 35.2116 123.596C33.7663 135.04 32.3183 146.484 30.8729 157.928Z" fill="#AEC02F"/>
<path d="M85.4686 122.947C84.1673 126.942 83.0139 131.783 85.7579 134.963C88.5459 138.193 93.6032 137.685 97.7992 136.899C97.6858 128.956 99.7392 120.991 103.68 114.094C105.287 111.28 107.279 108.295 106.767 105.096C105.814 99.1444 101.119 93.7578 96.7299 89.9938C96.6085 89.8898 96.4739 89.7818 96.3165 89.7791C96.1779 89.7765 96.0499 89.8551 95.9352 89.9338C91.3272 93.0924 90.4672 100.19 88.8232 105.167C88.2739 106.83 87.7219 108.504 87.5059 110.243C86.9552 114.694 86.8779 118.622 85.4686 122.947Z" fill="#AEC02F"/>
<path d="M57.9754 60.9007C57.5674 61.2394 57.5128 61.8447 57.8514 62.2527C58.1914 62.662 58.7954 62.7154 59.2034 62.378C59.4888 62.1394 59.8141 61.87 60.1088 61.794C60.2221 61.7647 60.3381 61.7914 60.3341 61.7527C60.3381 61.782 60.3141 61.8807 60.2461 61.9674C60.0861 62.17 59.7768 62.3447 59.4714 62.518L58.8621 62.862C58.3994 63.1207 58.2354 63.7074 58.4954 64.1687C58.6714 64.482 58.9981 64.658 59.3328 64.658C59.4928 64.658 59.6541 64.6193 59.8021 64.5353L60.4194 64.1847C60.8368 63.9487 61.3581 63.6567 61.7527 63.1554C62.2994 62.462 62.4087 61.566 62.0327 60.8674C61.6047 60.0767 60.5928 59.6807 59.6274 59.934C58.9154 60.1167 58.3714 60.57 57.9741 60.9007H57.9754Z" fill="#F9F7F2"/>
<path d="M66.0074 62.486C66.338 62.654 66.8274 62.866 67.3967 62.866C67.4634 62.866 67.5314 62.8634 67.5994 62.8567C68.7794 62.7527 69.7407 61.6234 69.7007 60.3954C69.6714 59.3567 68.966 58.3621 67.9487 57.9194C67.5767 57.7581 67.1727 57.6661 66.7554 57.6447C65.8314 57.2981 64.7261 57.7541 64.2634 58.678C63.8887 59.4207 63.9554 60.3594 64.4327 61.1247C64.7674 61.6674 65.2967 62.126 66.0074 62.486ZM67.1807 59.6807C67.5194 59.8274 67.7714 60.1527 67.7807 60.4567C67.7887 60.6874 67.586 60.9314 67.4274 60.946C67.3047 60.946 67.122 60.8994 66.8767 60.774C66.486 60.5767 66.2127 60.3567 66.0647 60.1127C65.9727 59.9674 65.9287 59.7927 65.946 59.6554C66.394 59.522 66.8367 59.53 67.1807 59.6807Z" fill="#F9F7F2"/>
<path d="M51.2075 57.6141C49.4288 57.5661 48.1168 58.6567 48.0142 60.1661C47.9502 61.118 48.3662 61.9474 49.1582 62.4407C49.6755 62.7634 50.3275 62.9247 50.9915 62.9234C51.6688 62.9234 52.3608 62.7567 52.9381 62.4234C53.7981 61.9274 54.2728 61.1247 54.2435 60.2247C54.1941 58.7421 52.9155 57.6421 51.2061 57.6141H51.2075ZM51.9808 60.7607C51.4581 61.0634 50.6155 61.0847 50.1755 60.8114C49.9822 60.6901 49.9142 60.5461 49.9315 60.2954C49.9728 59.6901 50.7301 59.5327 51.1488 59.5327H51.1768C51.2235 59.5327 52.3048 59.5607 52.3288 60.2887C52.3315 60.3541 52.3381 60.5541 51.9835 60.7607H51.9808Z" fill="#F9F7F2"/>
<path d="M55.2341 66.6313C55.7274 67.5207 56.4434 68.61 57.6154 69.1526C58.1128 69.3833 58.6568 69.4966 59.2248 69.4966C60.3207 69.4966 61.5021 69.0753 62.5994 68.2633C63.7447 67.41 64.4367 66.4327 64.6554 65.3567C64.6861 65.202 64.7821 64.73 64.5034 64.2793C64.2247 63.8273 63.6354 63.6887 63.1821 63.9673C62.8114 64.1967 62.6514 64.6367 62.7607 65.0367C62.5874 65.7527 61.9581 66.3473 61.4554 66.722C60.6141 67.3447 59.3754 67.8527 58.4221 67.4113C57.7554 67.1033 57.2661 66.3353 56.9154 65.7047C56.5701 65.078 56.2594 64.4207 55.9914 63.7487C55.7954 63.2553 55.2354 63.014 54.7435 63.2127C54.2501 63.4087 54.0115 63.9673 54.2075 64.4607C54.5048 65.206 54.8501 65.9367 55.2354 66.634L55.2341 66.6313Z" fill="#F9F7F2"/>
<path d="M40.5115 55.0714C34.0142 55.8007 25.177 53.9327 24.349 53.0581C24.097 52.5914 23.517 52.4181 23.0477 52.6687C22.581 52.9194 22.4077 53.5021 22.6583 53.9701C23.193 54.9634 25.8116 55.8207 29.0596 56.3927C28.117 56.4314 27.2503 56.8061 26.665 57.4847C25.8516 58.426 25.669 59.8114 26.1903 61.1007C26.7116 62.39 27.805 63.2593 29.0449 63.37C29.6383 63.426 30.2383 63.3313 30.7663 63.2487C31.5929 63.118 32.1116 63.0607 32.3769 63.3167C32.5796 63.5127 32.6716 63.9793 32.7449 64.354C33.8049 69.758 36.0982 75.5966 45.0662 77.9366C47.0422 78.4539 49.0568 78.7046 51.0435 78.7046C55.9328 78.7046 60.6488 77.1793 64.1607 74.3273C69.15 70.278 72.2967 64.186 72.5793 58.03C72.6033 57.5007 72.194 57.0514 71.6647 57.026C71.138 57.0127 70.686 57.4127 70.662 57.942C70.4034 63.558 67.5207 69.1273 62.9501 72.8379C58.5434 76.4153 51.7115 77.6873 45.5502 76.0806C37.6316 74.0139 35.6209 69.0473 34.6289 63.986C34.5102 63.3807 34.3476 62.55 33.7089 61.9367C32.7383 61.0007 31.4809 61.194 30.4703 61.3527C30.0089 61.4247 29.5769 61.4887 29.2156 61.4594C28.5956 61.4034 28.165 60.866 27.969 60.3807C27.773 59.8954 27.709 59.2114 28.1156 58.7407C28.5209 58.2687 29.2076 58.2327 29.7169 58.358C30.2249 58.482 30.8209 58.83 30.9663 59.4367C31.0889 59.9514 31.6023 60.2714 32.1236 60.146C32.6396 60.022 32.9569 59.5047 32.8343 58.9887C32.5716 57.8914 31.6916 57.0274 30.5236 56.6274C32.8049 56.9527 35.2742 57.138 37.4996 57.138C38.6622 57.138 39.7582 57.0887 40.7235 56.9807C47.3848 56.2327 52.8875 53.0047 54.9594 51.0154C57.5154 48.5661 58.4648 47.3461 60.0408 44.4928C60.2968 44.0288 60.1287 43.4448 59.6648 43.1888C59.2008 42.9328 58.6168 43.1008 58.3594 43.5648C56.8661 46.2701 56.0701 47.2901 53.6315 49.6288C51.8195 51.3674 46.6542 54.3821 40.5115 55.0714Z" fill="#F9F7F2"/>
<path d="M26.557 48.978H26.549C26.0223 48.978 25.593 49.402 25.589 49.93C25.585 50.4593 26.0103 50.8939 26.5396 50.8979C27.437 50.9059 28.3396 50.9139 29.2449 50.9139C33.1396 50.9139 37.1049 50.7726 40.9782 49.878C46.3835 48.6286 50.8395 45.9433 53.5235 42.3127C53.8381 41.8873 53.7488 41.2847 53.3221 40.97C52.8968 40.658 52.2968 40.7447 51.9795 41.1713C49.5662 44.4327 45.5062 46.862 40.5462 48.0073C35.9929 49.058 31.1969 49.018 26.557 48.978Z" fill="#F9F7F2"/>
<path d="M62.7501 45.7768C68.7847 45.8595 73.1487 52.4248 73.882 58.7261C73.9393 59.2154 74.354 59.5754 74.834 59.5754C74.8713 59.5754 74.9087 59.5754 74.946 59.5687C75.4727 59.5074 75.85 59.0314 75.7887 58.5047C74.9607 51.3794 69.8674 43.9542 62.7754 43.8582H62.7621C62.2381 43.8582 61.8101 44.2782 61.8021 44.8048C61.7954 45.3341 62.2194 45.7715 62.7501 45.7768Z" fill="#F9F7F2"/>
<path d="M45.9928 102.447C50.0848 102.447 54.1781 101.659 57.9608 100.074C58.4501 99.8698 58.6808 99.3058 58.4754 98.8178C58.2701 98.3298 57.7088 98.1005 57.2194 98.3032C49.5435 101.522 40.5075 101.238 33.0463 97.5432C32.5716 97.3072 31.9943 97.5018 31.7609 97.9778C31.5249 98.4525 31.7196 99.0285 32.1956 99.2645C36.4716 101.382 41.2329 102.448 45.9955 102.448L45.9928 102.447Z" fill="#F9F7F2"/>
<path d="M25.4236 106.382C25.1663 106.846 25.333 107.43 25.797 107.687C27.193 108.46 34.6249 112.347 43.8835 112.808C44.6929 112.848 45.4582 112.868 46.1848 112.868C53.1155 112.868 56.3994 111.142 59.0874 109.73L59.5434 109.491C60.0141 109.246 60.1954 108.666 59.9514 108.195C59.7074 107.724 59.1261 107.542 58.6554 107.787L58.1941 108.03C55.2875 109.558 51.9928 111.288 43.9795 110.891C35.1449 110.451 28.0596 106.746 26.729 106.007C26.2676 105.751 25.681 105.92 25.4236 106.382Z" fill="#F9F7F2"/>
<path d="M60.1394 117.51C55.6901 121.23 47.4902 122.44 41.7529 121.998C36.6929 121.603 31.4383 120.007 24.7156 116.822C24.2396 116.591 23.6637 116.798 23.4383 117.278C23.2117 117.756 23.4157 118.33 23.8943 118.556C30.8369 121.847 36.2982 123.499 41.6035 123.912C42.4262 123.976 43.2862 124.008 44.1715 124.008C50.0875 124.008 57.1181 122.536 61.3701 118.983C61.7767 118.643 61.8314 118.038 61.4901 117.63C61.1514 117.224 60.5461 117.168 60.1381 117.508L60.1394 117.51Z" fill="#F9F7F2"/>
<path d="M101.304 60.162C101.646 60.3513 102.035 60.4473 102.432 60.4473C102.695 60.4473 102.962 60.406 103.22 60.3206C103.872 60.1086 104.404 59.65 104.678 59.0633C104.902 58.5833 104.695 58.0113 104.214 57.7873C104.09 57.7286 103.959 57.7006 103.83 57.698C103.94 57.634 104.04 57.5486 104.122 57.4406C104.44 57.0166 104.354 56.414 103.93 56.0953C103.41 55.706 102.722 55.554 102.05 55.6753C101.374 55.7967 100.784 56.178 100.435 56.722C100.083 57.266 99.9791 57.9606 100.147 58.626C100.315 59.2926 100.736 59.8526 101.303 60.1633L101.304 60.162ZM102.051 57.7606C102.112 57.666 102.243 57.5886 102.391 57.5633C102.43 57.5566 102.468 57.5526 102.506 57.5526C102.614 57.5526 102.712 57.5806 102.779 57.6313C102.946 57.7566 103.14 57.8193 103.334 57.8233C103.167 57.918 103.026 58.0646 102.939 58.2513C102.891 58.3553 102.771 58.4486 102.627 58.4966C102.483 58.542 102.332 58.5366 102.232 58.482C102.132 58.4273 102.048 58.302 102.011 58.1566C101.974 58.01 101.988 57.8566 102.051 57.7606Z" fill="#F9F7F2"/>
<path d="M102.287 53.4447C102.267 53.35 102.231 53.2567 102.18 53.1713C102.131 52.322 101.676 51.5167 100.966 51.0367C100.209 50.5247 99.2112 50.4274 98.3725 50.7767C98.0312 50.9167 97.7045 51.1313 97.3819 51.4247C96.7059 52.0287 96.3259 52.7313 96.2819 53.454C96.2472 54.006 96.4485 54.5847 96.8179 55.0007C97.1525 55.378 97.6005 55.6007 98.0779 55.6273C98.1125 55.63 98.1472 55.63 98.1805 55.63C98.7339 55.63 99.1698 55.3793 99.4925 55.1953C99.6018 55.1313 99.7098 55.0647 99.8245 55.022C99.9645 54.9687 100.177 54.9487 100.401 54.93C100.755 54.8993 101.197 54.8593 101.643 54.654C102.136 54.4207 102.395 53.9313 102.287 53.4447ZM99.1472 53.226C98.9378 53.306 98.7352 53.418 98.5365 53.5313C98.4179 53.6007 98.2379 53.7033 98.2619 53.734C98.2339 53.7127 98.1952 53.6327 98.1992 53.5727C98.2112 53.37 98.3805 53.1087 98.6698 52.85C98.8298 52.7047 98.9725 52.606 99.1072 52.5513C99.2045 52.5113 99.3125 52.49 99.4218 52.49C99.5898 52.49 99.7592 52.538 99.8938 52.6287C100.033 52.722 100.142 52.8633 100.205 53.0207C99.8832 53.0487 99.5232 53.0847 99.1472 53.226Z" fill="#F9F7F2"/>
<path d="M107.739 53.4354C107.755 53.7967 107.972 54.118 108.3 54.266L108.642 54.4207C108.767 54.478 108.903 54.506 109.039 54.506C109.114 54.506 109.19 54.498 109.263 54.4794C110.62 54.1527 112.019 53.942 113.424 53.8514C113.952 53.818 114.354 53.362 114.32 52.8314C114.283 52.2367 114.236 51.4941 113.888 50.8034C113.422 49.8807 112.492 49.3141 111.578 49.4221C111.067 49.4781 110.663 49.7181 110.37 49.8941C109.83 50.2127 109.218 50.5767 108.704 51.1087C108.044 51.7927 107.702 52.6194 107.739 53.4354ZM111.348 51.5461C111.492 51.4607 111.69 51.3434 111.783 51.3327H111.791C111.879 51.3327 112.068 51.4607 112.172 51.6687C112.226 51.7741 112.266 51.8927 112.295 52.0221C111.598 52.0941 110.903 52.1927 110.214 52.3194C110.534 52.0287 110.946 51.7847 111.347 51.5474L111.348 51.5461Z" fill="#F9F7F2"/>
<path d="M93.4725 41.1968C93.9179 41.4955 94.4552 41.8288 95.0699 42.0501C95.1379 42.0741 95.2085 42.0808 95.2765 42.1021C93.6739 46.5008 91.9579 57.2194 93.2165 64.0113C92.7245 64.342 92.1992 64.606 91.5766 64.7113C91.2832 64.7606 91.0286 64.9446 90.8886 65.2073C90.7486 65.47 90.7392 65.7833 90.8619 66.0553C91.1552 66.6993 91.8899 67.0606 92.4552 67.25C92.9365 67.41 93.5285 67.5233 94.1325 67.5233C94.4152 67.5233 94.6992 67.494 94.9752 67.4366C94.4939 68.17 94.2725 69.0726 94.4285 69.9593C94.5099 70.4246 94.9152 70.7526 95.3725 70.7526C95.4285 70.7526 95.4832 70.7486 95.5392 70.7379C96.0619 70.6473 96.4099 70.1486 96.3179 69.626C96.2219 69.078 96.4779 68.49 96.9099 68.1353C96.5205 69.1113 96.3059 70.3459 96.1179 71.6393L96.0285 72.2379C95.9432 72.7619 96.2979 73.2539 96.8219 73.3393C96.8739 73.3473 96.9259 73.3513 96.9779 73.3513C97.4405 73.3513 97.8472 73.0166 97.9232 72.5459L98.0178 71.9166C98.1565 70.9659 98.4752 68.8193 99.0525 68.21C98.3898 69.7953 98.2698 72.1326 98.4832 73.2219C98.5725 73.6806 98.9738 73.9979 99.4245 73.9979C99.4858 73.9979 99.5472 73.9926 99.6098 73.9806C100.13 73.8793 100.47 73.3739 100.367 72.8539C100.158 71.7806 100.442 69.5193 100.959 68.65C100.663 70.9673 101.027 73.0259 102.067 74.9152C102.242 75.2326 102.57 75.4126 102.908 75.4126C103.064 75.4126 103.223 75.3752 103.37 75.2939C103.835 75.0392 104.004 74.4553 103.748 73.9899C102.898 72.4419 102.644 70.7793 102.898 68.85C103.786 70.3899 104.85 73.8553 104.907 75.2339C104.928 75.7499 105.354 76.1526 105.866 76.1526H105.907C106.436 76.1299 106.848 75.6819 106.826 75.1526C106.762 73.6286 105.848 70.4913 104.878 68.4993C105.639 69.002 106.212 69.8993 106.59 70.6566C107.274 72.0286 107.736 75.4072 107.89 76.5179C107.955 76.9992 108.367 77.3472 108.839 77.3472C108.883 77.3472 108.926 77.3446 108.971 77.3379C109.496 77.2659 109.863 76.7819 109.792 76.2566C109.486 74.0193 109.04 71.2659 108.31 69.798C108.231 69.6406 108.147 69.4966 108.066 69.35C109.388 70.9473 110.914 74.2366 111.396 76.1112C111.508 76.5446 111.898 76.8312 112.326 76.8312C112.406 76.8312 112.486 76.8219 112.566 76.8019C113.079 76.6686 113.388 76.1459 113.256 75.6326C112.69 73.4379 110.552 68.566 108.483 67.0846C108.051 66.7726 107.452 66.8753 107.143 67.306C107.034 67.458 106.994 67.63 106.983 67.8046C106.756 67.554 106.519 67.3353 106.274 67.1433C106.875 66.69 107.367 66.122 107.571 65.4406C107.574 65.4326 107.571 65.4246 107.574 65.4166C108.279 66.0113 109.016 66.5766 109.878 66.7113C110.299 66.778 110.71 66.8046 111.103 66.8046C113.222 66.8046 114.843 65.998 114.923 65.9553C115.302 65.7633 115.51 65.346 115.434 64.9273C115.356 64.51 115.016 64.19 114.594 64.1447C113.366 64.01 112.598 63.2367 111.708 62.3393C110.866 61.49 109.911 60.5273 108.49 60.234C106.86 59.8967 105.164 59.994 103.587 60.5127C103.084 60.678 102.81 61.2193 102.975 61.7233C103.084 62.054 103.354 62.2847 103.668 62.3593C103.275 62.6073 102.964 62.998 102.81 63.4553C102.642 63.958 102.936 64.4633 103.439 64.6327C103.946 64.8006 104.511 64.494 104.68 63.99C105.172 63.802 105.643 63.95 106.199 64.3207C105.983 64.4367 105.81 64.634 105.734 64.8873C105.51 65.6353 103.808 66.4406 102.986 66.466H102.958C102.218 66.466 100.427 65.6366 99.8778 65.034C99.8112 64.9593 99.7285 64.9113 99.6458 64.8633C99.9258 64.8727 100.182 64.9406 100.367 65.078C100.791 65.39 101.394 65.3033 101.71 64.8766C102.024 64.4513 101.934 63.8487 101.508 63.534C100.639 62.8927 99.4258 62.7567 98.2605 63.1713C97.6578 63.3847 96.7832 64.038 95.7005 64.87C95.3525 65.1366 95.0672 65.362 94.9365 65.4393C94.7672 65.5313 94.5552 65.5793 94.3285 65.598C95.1125 65.062 95.7645 64.3993 96.3739 63.782C97.9992 62.13 98.8658 61.3793 100.864 62.3847C101.339 62.626 101.916 62.434 102.154 61.9607C102.392 61.4873 102.202 60.91 101.728 60.6713C98.3938 58.9874 96.5152 60.9007 95.0059 62.434C94.9779 62.462 94.9499 62.4887 94.9219 62.518C94.0712 55.8207 95.7965 45.8301 97.2432 42.3421C98.2752 42.3048 99.2672 42.0741 100.079 41.8755C100.595 41.7501 100.911 41.2315 100.786 40.7168C100.66 40.2021 100.143 39.8795 99.6258 40.0115C98.4178 40.3048 96.9152 40.6715 95.7179 40.2408C95.3019 40.0915 94.9059 39.8435 94.5365 39.5981C93.2952 38.7728 92.1539 37.7875 91.1459 36.6675C90.7899 36.2742 90.1832 36.2422 89.7899 36.5968C89.3966 36.9528 89.3646 37.5595 89.7192 37.9542C90.8352 39.1928 92.0992 40.2835 93.4725 41.1968ZM99.5125 67.3806C99.5152 67.3033 99.5178 67.2273 99.5018 67.1513C99.5405 67.1753 99.5805 67.1993 99.6192 67.2233C99.5805 67.2686 99.5485 67.33 99.5125 67.3806ZM108.103 62.118C108.956 62.294 109.6 62.9433 110.346 63.6953C110.735 64.0873 111.142 64.4993 111.607 64.8686C111.162 64.9006 110.675 64.8967 110.175 64.818C109.742 64.75 109.139 64.234 108.555 63.7367C107.763 63.0607 106.762 62.2087 105.568 62.026C106.408 61.9153 107.268 61.9447 108.103 62.118ZM98.2778 65.358C98.1605 65.682 98.2112 66.0553 98.4592 66.3273C98.4805 66.35 98.5125 66.3753 98.5352 66.398C98.3472 66.4046 98.1578 66.4486 97.9952 66.5686C97.8898 66.6473 97.7978 66.7446 97.7045 66.8406C97.6898 66.778 97.6872 66.7126 97.6579 66.6513C97.5512 66.426 97.3658 66.266 97.1512 66.178C97.4938 65.9153 97.9072 65.6086 98.2778 65.3553V65.358Z" fill="#F9F7F2"/>
<path d="M100.805 38.0461C101.694 38.3915 102.506 38.5648 103.236 38.5648C103.926 38.5648 104.54 38.4115 105.079 38.1035C105.539 37.8421 105.699 37.2541 105.438 36.7955C105.175 36.3328 104.587 36.1728 104.128 36.4368C103.546 36.7675 102.662 36.7075 101.5 36.2555C99.6032 35.5208 97.8672 34.3462 96.4845 32.8568C96.1232 32.4675 95.5152 32.4462 95.1272 32.8075C94.7392 33.1688 94.7165 33.7768 95.0779 34.1648C96.6579 35.8648 98.6379 37.2075 100.805 38.0461Z" fill="#F9F7F2"/>
<path d="M104.676 35.1768C105.73 36.0381 106.996 36.5115 108.212 36.5115C108.364 36.5115 108.515 36.5035 108.664 36.4888C109.192 36.4355 109.578 35.9648 109.524 35.4382C109.472 34.9102 109.01 34.5368 108.474 34.5768C107.628 34.6622 106.684 34.3368 105.89 33.6888C105.195 33.1208 104.58 32.3022 104.012 31.1862C103.746 30.6595 103.352 29.7022 103.708 29.1942C104.014 28.7609 103.908 28.1622 103.475 27.8569C103.04 27.5502 102.443 27.6555 102.138 28.0902C101.647 28.7862 101.278 30.0409 102.3 32.0555C102.992 33.4168 103.771 34.4382 104.676 35.1768Z" fill="#F9F7F2"/>
<path d="M113.658 38.9928C113.718 38.9928 113.778 38.9874 113.839 38.9754C117.08 38.3555 119.622 37.3261 121.394 35.9115C121.808 35.5821 121.876 34.9781 121.546 34.5621C121.215 34.1488 120.611 34.0781 120.196 34.4115C118.67 35.6275 116.41 36.5288 113.478 37.0901C112.956 37.1888 112.616 37.6928 112.715 38.2128C112.803 38.6741 113.207 38.9928 113.658 38.9928Z" fill="#F9F7F2"/>
<path d="M120.098 42.0021C120.135 42.5061 120.556 42.8901 121.054 42.8901C121.078 42.8901 121.102 42.8901 121.126 42.8874C121.655 42.8487 122.051 42.3874 122.012 41.8594C121.88 40.0927 122.55 38.2888 123.802 37.0368C124.176 36.6621 124.176 36.0541 123.802 35.6794C123.428 35.3048 122.819 35.3048 122.444 35.6794C120.803 37.3208 119.926 39.6847 120.098 42.0021Z" fill="#F9F7F2"/>
<path d="M124.591 43.262C124.952 45.0967 125.48 47.1407 127.207 48.1927C127.363 48.2873 127.535 48.3313 127.706 48.3313C128.03 48.3313 128.346 48.1673 128.526 47.87C128.802 47.418 128.658 46.8273 128.206 46.5513C127.146 45.906 126.768 44.3887 126.475 42.8927C126.087 40.906 125.687 38.8501 126.098 36.9207C126.208 36.4021 125.876 35.8927 125.359 35.7821C124.834 35.6687 124.331 36.0034 124.22 36.5221C123.728 38.8314 124.187 41.186 124.591 43.262Z" fill="#F9F7F2"/>
<path d="M126.964 39.6287C128.75 40.514 130.122 42.4767 130.635 44.878C131.135 47.2286 130.85 49.6726 130.467 51.9619C130.446 52.0859 130.454 52.2073 130.479 52.3233C129.587 52.6713 129.018 53.4353 128.63 53.9553C128.499 54.1313 128.382 54.2953 128.262 54.4166C127.887 54.7913 127.887 55.3979 128.262 55.7739C128.636 56.1499 129.244 56.1486 129.62 55.7739C129.798 55.5966 129.979 55.3606 130.171 55.1033C130.68 54.4193 131.026 53.9939 131.578 54.0633C132.244 54.1299 132.731 54.3886 133.067 54.8539C133.511 55.4686 133.55 56.2672 133.468 56.6272C133.292 57.4232 132.439 58.6846 131.164 58.8659C130.846 58.9126 130.566 58.6619 130.162 58.2766C129.77 57.9032 129.234 57.3859 128.492 57.5606C127.818 57.7152 127.51 58.3339 127.362 58.6992C126.78 57.7699 125.782 57.1206 124.686 57.0059C124.151 56.9366 123.686 57.3326 123.631 57.8606C123.576 58.3886 123.959 58.8606 124.487 58.9152C125.023 58.9712 125.536 59.3112 125.794 59.7806C125.968 60.0992 126.296 60.2792 126.636 60.2792C126.688 60.2792 126.738 60.2486 126.79 60.2406C126.511 61.0045 126.159 61.9632 125.759 63.0192C124.722 62.0779 123.11 61.0326 121.915 60.9832C121.394 60.9979 120.939 61.3739 120.916 61.9019C120.911 62.0379 120.935 62.1685 120.982 62.2885C120.563 62.2832 120.175 62.5405 120.051 62.9632C119.954 63.2925 120.056 63.6232 120.27 63.8619C119.827 63.7645 119.366 63.9765 119.183 64.4072C118.978 64.8952 119.206 65.4592 119.695 65.6645C121.915 66.6018 122.34 67.2552 123.274 68.6872L123.395 68.8738C123.579 69.1565 123.886 69.3085 124.199 69.3085C124.379 69.3085 124.562 69.2578 124.724 69.1525C125.168 68.8618 125.292 68.2685 125.002 67.8245L124.882 67.6392C124.698 67.3578 124.524 67.0978 124.35 66.8472C124.37 66.8472 124.386 66.8618 124.406 66.8618C124.563 66.8618 124.722 66.8245 124.87 66.7418C125.315 66.4952 125.478 65.9485 125.264 65.4939C125.35 65.5819 125.434 65.6739 125.554 65.7245C125.678 65.7779 125.806 65.8032 125.932 65.8032C126.304 65.8032 126.659 65.5859 126.815 65.2219C126.894 65.0379 126.939 64.7699 126.848 64.4432C127.135 64.3659 127.382 64.1605 127.495 63.8632C127.986 62.5699 128.412 61.3979 128.722 60.5512L128.992 59.8112C129.506 60.2899 130.3 60.9192 131.436 60.7672C133.504 60.4726 134.994 58.6286 135.343 57.0446C135.539 56.1632 135.394 54.7953 134.623 53.7313C134.079 52.9779 133.299 52.4899 132.363 52.2699C132.758 49.9126 133.082 47.146 132.514 44.478C131.879 41.5073 130.124 39.054 127.819 37.9087C127.346 37.6727 126.767 37.8687 126.532 38.342C126.296 38.8167 126.491 39.394 126.966 39.63L126.964 39.6287ZM124.567 64.5165C124.743 64.6792 124.894 64.8299 124.978 64.9445C124.986 65.0139 125.03 65.0712 125.052 65.1379C124.912 64.9312 124.754 64.7219 124.567 64.5165Z" fill="#F9F7F2"/>
<path d="M102.411 100.155C105.955 101.382 109.659 101.588 113.166 101.588C113.363 101.588 113.559 101.588 113.755 101.586C115.302 101.578 116.947 101.535 118.548 101.108C119.815 100.771 120.996 100.212 122.063 99.447C122.494 99.1377 122.592 98.5377 122.283 98.1071C121.975 97.6751 121.372 97.5791 120.943 97.8871C120.067 98.5164 119.095 98.9751 118.054 99.2537C116.672 99.6204 115.167 99.659 113.744 99.667C110.239 99.6937 106.508 99.5404 103.039 98.3404C100.143 97.3404 97.4965 95.6217 94.9379 93.9604C94.4925 93.6698 93.8992 93.7964 93.6099 94.2431C93.3219 94.6871 93.4472 95.2817 93.8925 95.5697C96.5485 97.2951 99.2938 99.0777 102.411 100.155Z" fill="#F9F7F2"/>
<path d="M91.8712 102.446C91.5566 102.872 91.6472 103.474 92.0726 103.788C97.1752 107.554 103.503 109.511 109.824 109.511C113.682 109.511 117.536 108.782 121.107 107.29C121.596 107.086 121.828 106.524 121.623 106.035C121.418 105.546 120.855 105.312 120.367 105.519C111.558 109.2 100.898 107.915 93.2126 102.244C92.7859 101.931 92.1859 102.019 91.8712 102.446Z" fill="#F9F7F2"/>
<path d="M110.055 118.764C114.326 118.764 118.318 117.648 121.471 115.544C121.912 115.249 122.031 114.655 121.738 114.214C121.442 113.774 120.847 113.655 120.406 113.948C117.088 116.16 112.703 117.161 108.068 116.757C104.228 116.427 100.126 115.173 95.5245 112.927C94.3819 112.37 93.2059 111.746 92.4859 110.779C92.1699 110.355 91.5672 110.264 91.1432 110.584C90.7179 110.9 90.6299 111.502 90.9472 111.928C91.9232 113.239 93.3885 114.023 94.6832 114.655C99.5005 117.007 103.824 118.32 107.903 118.673C108.627 118.735 109.344 118.764 110.055 118.764Z" fill="#F9F7F2"/>
<path d="M141.114 125.846C145.11 118.948 140.895 91.7924 136.091 86.5325C131.526 81.5338 120 78.5752 119.44 78.4378C118.516 78.2738 118.179 79.1792 118.018 79.6125C117.682 80.5192 117.174 81.8872 114.711 81.9645C110.5 82.1005 105.155 81.5365 102.747 79.9885C102.275 79.6845 102.007 79.3405 101.924 78.9338C101.79 78.2658 102.182 77.5072 102.342 77.2765C102.528 77.0125 102.57 76.6725 102.452 76.3712C102.335 76.0699 102.074 75.8485 101.758 75.7832C101.619 75.7539 98.2832 75.0619 92.4725 75.0619H92.4232C85.0539 75.0699 79.7086 81.9445 75.474 90.5404C72.6473 88.2258 69.3287 86.2885 65.5687 84.7911C65.5327 84.7138 65.502 84.6338 65.446 84.5685C65.2807 84.3738 65.0461 84.2525 64.7914 84.2298C61.7274 83.9751 58.7674 83.1631 55.9981 81.8192C55.7461 81.6952 55.4514 81.6898 55.1941 81.8018C54.9368 81.9152 54.7421 82.1338 54.6595 82.4018C53.4115 86.4965 51.7755 89.0738 49.7968 90.0631C47.8315 91.0431 44.6942 90.8031 40.7235 89.3618C39.8942 89.0604 39.3929 88.7138 39.1916 88.2991C38.9849 87.8764 39.0289 87.2924 39.1089 86.5765L39.8582 79.8392C39.8875 79.5712 39.8035 79.3032 39.6262 79.0992C39.4489 78.8952 39.1942 78.7778 38.9249 78.7725L32.6236 78.6392C31.9716 78.6232 31.0783 78.6072 30.2823 79.0445C30.2649 79.0538 30.2543 79.0698 30.2369 79.0792C30.1089 78.9605 29.9609 78.8632 29.7769 78.8272C22.0597 77.3378 15.6104 70.2539 14.0944 61.6019C12.7717 54.05 15.0144 45.3874 20.2463 37.8381C25.445 30.3328 32.9076 24.5942 38.8262 20.4329C39.0676 20.2635 39.2182 19.9915 39.2329 19.6955C39.2462 19.4302 39.1356 19.1822 38.9542 18.9915C39.8449 19.4689 40.8209 19.6315 41.8182 19.6315C42.8862 19.6315 43.9782 19.4475 45.0075 19.2742L45.3302 19.2195C45.6622 19.1649 45.9408 18.9395 46.0648 18.6275C46.1888 18.3156 46.1408 17.9609 45.9382 17.6929C45.2982 16.8502 44.6182 16.4662 43.9595 16.0956C43.2889 15.7169 42.5995 15.3276 41.7502 14.3462C45.0968 13.3502 47.5355 12.5929 49.3115 11.0356C49.5795 10.8009 49.6955 10.4369 49.6128 10.0903C49.5301 9.7436 49.2608 9.47161 48.9155 9.38361C47.5142 9.02894 45.7182 8.96494 43.9222 9.16094C46.1675 7.46229 47.7608 6.06229 47.0662 4.70097C46.8808 4.33964 46.4888 4.13697 46.0835 4.18631C44.4542 4.40497 42.4089 5.1063 40.5915 6.01029C41.1049 4.53697 41.4155 2.98231 41.0342 2.26765C40.7835 1.79699 40.2969 1.56499 39.7729 1.63566C39.1716 1.72766 37.7542 3.15831 36.5902 4.48097C36.3809 3.23031 35.9236 2.00899 35.1942 0.724995C35.0316 0.43833 34.7342 0.254332 34.4062 0.239665C34.0876 0.223665 33.7649 0.376997 33.5743 0.646329C31.2343 3.97297 30.4849 8.29828 31.5689 12.2169C31.7103 12.7276 32.2409 13.0249 32.7503 12.8863C33.2609 12.7449 33.5609 12.2156 33.4196 11.7036C32.6409 8.88761 32.9623 5.82496 34.2649 3.22498C34.7369 4.4623 34.8889 5.6543 34.7649 6.99696C34.7249 7.43695 34.9889 7.84762 35.4076 7.99162C35.8262 8.13295 36.2889 7.97562 36.5276 7.60495C37.0222 6.83829 38.0956 5.6343 38.9862 4.71564C38.6089 5.96096 37.9862 7.47562 37.5956 7.90628C37.2582 8.27561 37.2622 8.84361 37.6049 9.21027C37.9476 9.57427 38.5129 9.61561 38.9062 9.30094C40.1582 8.29561 42.1222 7.30229 43.9649 6.67962C43.2769 7.25029 42.4689 7.85295 41.9062 8.27295C40.4875 9.33161 39.6675 9.95827 39.3009 10.5023C39.0662 10.8516 39.0849 11.3116 39.3489 11.6409C39.6115 11.9676 40.0555 12.0876 40.4489 11.9329C41.9595 11.3383 43.9489 11.0009 45.7408 10.9783C44.4275 11.5489 42.8102 12.0303 40.8769 12.6049L39.8675 12.9076C39.5742 12.9956 39.3396 13.2183 39.2382 13.5089C39.1369 13.7982 39.1796 14.1182 39.3529 14.3702C40.7529 16.4022 41.8915 17.1276 42.8209 17.6582C41.4902 17.7942 40.2515 17.7169 39.3609 16.9636C38.9556 16.6222 38.3516 16.6716 38.0076 17.0769C37.7796 17.3462 37.7409 17.7009 37.8502 18.0116L33.3343 14.0982C32.9023 13.7249 32.3103 13.2142 31.4969 13.0956C30.5889 12.9689 29.7916 13.3902 29.3116 13.6436C12.4837 22.5302 0.961126 41.2847 0.634461 60.31C0.550461 65.2926 1.20512 69.4406 2.63845 72.9912C3.91977 76.1659 5.95576 79.2445 9.04374 82.6831C13.6544 87.8124 17.813 91.1298 23.641 94.3364C18.1744 110.3 14.4237 126.486 10.5091 143.409L10.2664 144.457C9.57707 147.436 8.97174 150.531 8.46508 153.651C8.38108 154.175 8.73574 154.668 9.25974 154.752C9.78374 154.832 10.2757 154.481 10.3611 153.957C10.8597 150.879 11.4571 147.828 12.1371 144.889L12.3797 143.843C17.329 122.442 22.0037 102.228 30.2316 82.2165C30.4996 81.5645 30.7743 80.9605 31.1996 80.7285C31.5463 80.5378 32.0929 80.5485 32.5783 80.5592L37.8289 80.6698L37.1956 86.3645C37.1116 87.1325 36.9956 88.1831 37.4622 89.1391C37.8929 90.0244 38.7449 90.6871 40.0662 91.1658C44.6089 92.8124 48.1688 93.0191 50.6515 91.7804C52.9288 90.6418 54.7781 88.0298 56.1554 84.0058C58.5568 85.0525 61.0794 85.7365 63.6794 86.0458C63.4594 89.5298 63.6447 93.7604 64.1234 98.4457C64.0421 98.699 64.0741 98.9737 64.2061 99.2057C66.798 123.271 76.9446 158.92 81.1899 170.084C81.3353 170.467 81.7006 170.703 82.0873 170.703C82.2006 170.703 82.3166 170.683 82.4286 170.64C82.9246 170.451 83.1739 169.897 82.9846 169.401C81.086 164.408 77.9953 154.48 74.9367 142.907C74.9393 142.892 74.9473 142.88 74.9487 142.864C74.974 142.608 77.574 116.891 88.1832 97.2324C88.4339 96.7657 88.2606 96.1844 87.7939 95.9311C87.3286 95.6804 86.7459 95.8511 86.4926 96.3204C78.4486 111.223 74.938 129.499 73.658 137.961C71.898 130.996 70.2087 123.636 68.826 116.51C68.866 116.434 68.9114 116.359 68.9314 116.271C68.954 116.166 71.258 105.646 72.998 101.132C77.6006 89.1951 83.5073 76.9885 92.4205 76.9778H92.4672C96.0845 76.9778 98.7298 77.2605 100.154 77.4605C99.9965 77.9818 99.9032 78.6152 100.034 79.2872C100.214 80.2125 100.791 81.0125 101.703 81.5992C104.647 83.4925 110.582 84.0191 114.766 83.8805C118.274 83.7711 119.295 81.6298 119.73 80.4992C122.27 81.2138 131.094 83.9111 134.67 87.8244C138.902 92.4591 143 118.75 139.448 124.882C136.06 130.732 123.388 140.563 120.903 142.087C120.724 141.848 120.578 141.459 120.503 141.26L118.506 135.951C118.39 135.645 118.244 135.264 118.29 135.023C118.346 134.724 118.744 134.376 119.035 134.12C123.412 130.298 133.368 121.784 133.467 121.699C133.704 121.498 133.828 121.192 133.799 120.883C133.579 118.474 133.368 116.316 133.187 114.582L133.054 113.311C132.414 107.124 132.172 104.811 129.846 97.0924C129.692 96.5844 129.159 96.3017 128.65 96.4511C128.143 96.6044 127.855 97.1404 128.008 97.647C130.284 105.19 130.5 107.286 131.146 113.508L131.278 114.782C131.446 116.388 131.64 118.363 131.843 120.563C129.976 122.16 121.671 129.27 117.772 132.675C117.34 133.052 116.728 133.619 116.484 134.432C116.404 134.356 116.316 134.287 116.21 134.24C114.364 133.436 112.486 132.704 110.624 132.063C110.232 131.927 109.791 132.06 109.542 132.398C108.582 133.688 109.298 135.371 110.374 136.392C110.551 136.559 110.738 136.72 110.927 136.883C111.183 137.101 111.431 137.316 111.635 137.533C111.095 137.729 110.447 137.941 109.778 138.157C107.434 138.917 105.008 139.704 103.942 140.849C103.695 141.113 103.618 141.492 103.742 141.832C103.864 142.171 104.168 142.413 104.526 142.457C104.918 142.505 105.854 142.557 106.922 142.585C105.792 143.285 104.96 144.033 104.667 144.935C104.568 145.24 104.628 145.572 104.824 145.823C105.02 146.075 105.336 146.228 105.648 146.188C106.299 146.143 108.212 145.901 110.044 145.401C109.482 146.277 109.03 147.209 109.006 148.173C108.998 148.499 109.154 148.805 109.422 148.989C109.584 149.1 109.774 149.157 109.966 149.157C110.09 149.157 110.215 149.133 110.332 149.084C110.85 148.871 112.446 148 113.859 146.995C113.763 147.792 113.826 148.3 114.164 148.671C114.371 148.897 114.8 149.049 115.102 149.023C115.823 148.943 116.224 148.296 117.107 146.879C117.814 145.743 118.692 144.329 119.564 143.604C119.594 143.58 119.608 143.545 119.634 143.519C119.867 143.756 120.136 143.968 120.495 144.093C120.546 144.112 120.606 144.12 120.672 144.12C122.206 144.12 127.927 139.599 133.002 134.837C133.391 139.944 133.916 146.843 134.035 149.787C134.056 150.303 134.48 150.707 134.994 150.707H135.032C135.562 150.684 135.975 150.237 135.952 149.708C135.831 146.7 135.295 139.667 134.904 134.531L134.796 133.117C137.668 130.3 140.108 127.58 141.112 125.847L141.114 125.846ZM24.277 92.4911C18.749 89.4204 14.909 86.3325 10.4731 81.3978C7.53842 78.1325 5.61443 75.2325 4.41844 72.2712C3.08378 68.9646 2.47312 65.0619 2.55312 60.3433C2.86778 41.9967 13.9784 23.9115 30.2023 15.3382C30.5729 15.1422 30.9663 14.9462 31.2169 14.9929C31.4729 15.0289 31.8049 15.3169 32.0716 15.5462L36.7156 19.5702C30.8436 23.7608 23.7436 29.4115 18.6637 36.7434C13.1464 44.7061 10.7891 53.886 12.1984 61.9326C13.8144 71.1552 20.6343 78.7338 28.8783 80.5858C28.709 80.9058 28.5663 81.2218 28.457 81.4872C26.9516 85.1485 25.569 88.8151 24.277 92.4911ZM67.9714 111.89C67.306 108.128 66.75 104.484 66.334 101.046C67.382 101.939 68.702 103.134 69.8874 104.435C69.8927 104.442 69.9007 104.443 69.906 104.448C69.19 106.926 68.4954 109.692 67.9714 111.89ZM71.2087 100.443C70.994 101.002 70.7713 101.644 70.5473 102.339C68.7394 100.487 66.8447 98.959 66.0274 98.3044C65.5927 94.0257 65.4114 90.1458 65.5647 86.8791C69.0047 88.3244 72.054 90.1391 74.6233 92.3111C73.4007 94.9457 72.2673 97.6977 71.2087 100.443ZM118.338 142.128C117.564 142.771 116.86 143.721 116.239 144.664C116.251 144.591 116.262 144.523 116.271 144.46C116.336 143.989 116.048 143.543 115.592 143.408C115.138 143.271 114.651 143.492 114.451 143.921C114.263 144.324 113.158 145.173 112.003 145.937C112.172 145.696 112.348 145.457 112.518 145.225C112.926 144.671 113.31 144.147 113.602 143.628C113.832 143.216 113.73 142.697 113.359 142.404C112.988 142.111 112.459 142.131 112.112 142.452C111.578 142.945 110.199 143.413 108.74 143.755C109.352 143.423 109.966 143.125 110.403 142.915C110.848 142.699 111.248 142.505 111.556 142.337C111.982 142.105 112.168 141.592 111.99 141.141C111.811 140.691 111.322 140.441 110.855 140.564C110.519 140.651 109.412 140.679 108.295 140.685C108.999 140.433 109.727 140.196 110.37 139.988C111.631 139.579 112.72 139.227 113.448 138.857C113.856 138.651 114.062 138.184 113.94 137.744C113.648 136.692 112.867 136.021 112.179 135.429C112.012 135.288 111.847 135.144 111.694 135C111.464 134.783 111.28 134.529 111.163 134.293C112.595 134.815 114.03 135.388 115.447 136.004C115.799 136.16 116.188 136.08 116.459 135.841C116.531 136.144 116.63 136.416 116.712 136.633L118.71 141.94C118.71 141.94 118.711 141.944 118.712 141.945C118.579 141.98 118.451 142.035 118.338 142.128Z" fill="#F9F7F2"/>
<path d="M111.679 67.4752C111.188 67.2752 110.627 67.5032 110.424 67.9939C110.22 68.4832 110.452 69.0445 110.942 69.2485C112.688 69.9752 115.044 74.4245 115.264 76.7778C115.311 77.2765 115.73 77.6485 116.219 77.6485C116.248 77.6485 116.279 77.6485 116.31 77.6445C116.838 77.5951 117.226 77.1271 117.176 76.6005C116.92 73.8551 114.302 68.5659 111.68 67.4739L111.679 67.4752Z" fill="#F9F7F2"/>
<path d="M118.907 76.0591C118.996 76.0591 119.088 76.0471 119.179 76.0204C119.688 75.8711 119.979 75.3364 119.83 74.8284C119.262 72.8991 117.578 68.8938 115.268 67.5458C114.81 67.2805 114.223 67.4325 113.955 67.8925C113.688 68.3498 113.843 68.9378 114.3 69.2045C115.768 70.0605 117.296 73.0191 117.987 75.3697C118.11 75.7871 118.492 76.0591 118.907 76.0591Z" fill="#F9F7F2"/>
<path d="M122.328 70.9272C122.504 71.2392 122.83 71.4138 123.164 71.4138C123.324 71.4138 123.487 71.3752 123.636 71.2898C124.098 71.0285 124.26 70.4432 123.999 69.9819C123.178 68.5285 121.011 66.3859 119.342 65.6912C118.85 65.4885 118.29 65.7205 118.087 66.2099C117.972 66.4859 118.008 66.7792 118.139 67.0232C117.728 66.9032 117.276 67.0525 117.05 67.4379C116.779 67.8939 116.93 68.4819 117.384 68.7525C119.082 69.7592 120.248 71.6045 120.43 73.5658C120.475 74.0632 120.894 74.4365 121.384 74.4365C121.414 74.4365 121.444 74.4365 121.474 74.4325C122.002 74.3845 122.39 73.9165 122.34 73.3885C122.162 71.4538 121.248 69.6085 119.858 68.2525C120.824 69.0059 121.848 70.0792 122.326 70.9245L122.328 70.9272Z" fill="#F9F7F2"/>
<path d="M124.5 61.8167C124.672 62.1407 125.004 62.3247 125.348 62.3247C125.5 62.3247 125.655 62.29 125.799 62.2127C126.267 61.962 126.444 61.3821 126.195 60.9127C125.663 59.9127 124.586 59.2461 123.451 59.2154C122.908 59.1874 122.479 59.6181 122.464 60.1474C122.45 60.6767 122.867 61.1194 123.398 61.1341C123.847 61.1474 124.288 61.4207 124.5 61.8167Z" fill="#F9F7F2"/>
<path d="M39.6556 36.934C39.1449 33.7593 36.1449 31.602 32.9703 32.102C29.7969 32.6127 27.6303 35.6113 28.141 38.7873C28.4236 40.546 29.473 41.9886 30.8876 42.8446C30.1769 43.1886 29.473 43.5459 28.7783 43.9246C28.313 44.1779 28.141 44.7619 28.3943 45.2273C28.5676 45.5473 28.8983 45.7286 29.2383 45.7286C29.393 45.7286 29.5503 45.6926 29.697 45.6126C31.0036 44.9019 32.3383 44.2579 33.6956 43.6753C33.7623 43.6779 33.8276 43.6926 33.8943 43.6926C34.1996 43.6926 34.5116 43.6686 34.8236 43.6179C35.9916 43.4299 37.0489 42.9006 37.8916 42.106C40.3916 41.3006 42.9582 40.694 45.5809 40.306C46.1062 40.2286 46.4688 39.7406 46.3902 39.2166C46.3128 38.6926 45.8222 38.322 45.3009 38.4086C43.3089 38.7033 41.3489 39.1233 39.4236 39.6486C39.7049 38.7806 39.8049 37.8606 39.6556 36.934ZM33.3983 41.722C31.7276 41.5033 30.3183 40.23 30.0369 38.482C29.6943 36.3513 31.1476 34.3407 33.2756 33.998C33.4849 33.9647 33.6929 33.9487 33.8996 33.9487C35.7849 33.9487 37.4516 35.318 37.7609 37.2393C37.9276 38.27 37.6809 39.306 37.0689 40.154C36.9969 40.254 36.9076 40.3366 36.8276 40.4273C35.6689 40.8126 34.5289 41.2513 33.4009 41.722H33.3983Z" fill="#F9F7F2"/>
</g>
<defs>
<clipPath id="clip0_291_1034">
<rect width="142.08" height="170.464" fill="white" transform="translate(0.626678 0.237061)"/>
</clipPath>
</defs>
</svg>
