<svg xmlns="http://www.w3.org/2000/svg" fill="none" viewBox="0 0 140 91"><path fill="#000" d="M134.22 0 0 10.13l5.77 80.84L140 80.84 134.22 0Z"/><path fill="#000" d="M134.22 0 0 10.13l5.77 80.84L140 80.84 134.22 0Z"/><path fill="#fff" d="M107.3 18.97c3.17 0 6.2-.3 9.22.16 4.38.62 7.1 4.35 7.25 8.54a9.18 9.18 0 0 1-7.1 9.32c-1.67.46-3.48.46-5.3.77l.61 8.85h-2.87c0 .16-1.96-27.64-1.96-27.64h.15Zm4.08 15.84c1.2 0 2.27 0 3.32-.3.46 0 .9-.16 1.36-.32a6.38 6.38 0 0 0 4.68-5.59 6.08 6.08 0 0 0-3.32-6.21c-2.26-1.09-4.53-.78-6.95-.47l.9 12.9ZM38.57 47.7c.3 1.09.46 1.86.76 2.8-4.38 3.41-12.54 4.03-17.98-1.25-4.98-4.81-5.74-13.04-1.66-18.79 4.38-6.2 12.54-7.14 17.52-4.5 0 .93-.15 1.86-.3 2.95-3.32-1.55-6.65-2.02-9.97-.62a10.76 10.76 0 0 0-5.29 4.81c-2.71 4.66-1.8 10.4 1.97 14.29 3.17 3.1 8.76 4.81 14.95.31Zm30.67-15.06v-.16c-.76.16-1.51.31-2.42.47h-.76c.46 1.09.6 2.17.76 3.41v2.02c0 .31 0 .78-.15 1.09-1.06 4.81-4.99 8.7-10.12 9a11 11 0 0 1-11.33-8.22c-.15-.78-.3-1.56-.45-2.49v-2.8c-1.06-.15-1.97-.61-2.87-.92-.3 1.24-.3 2.64-.3 4.03 0 .62 0 1.24.3 1.71a13.78 13.78 0 0 0 14.95 11.34 13.96 13.96 0 0 0 12.84-12.9v-2.48c0-1.08-.3-2.33-.6-3.26m32.77-2.33V30c-.75.15-1.5.3-2.41.46h-.76c.45 1.1.6 2.18.76 3.42v2.02c0 .3 0 .78-.15 1.09-1.06 4.8-4.99 8.7-10.13 9a11 11 0 0 1-11.32-8.23c-.16-.77-.3-1.55-.46-2.48v-2.8c-1.05-.15-1.96-.62-2.87-.93-.3 1.24-.3 2.64-.3 4.04 0 .62 0 1.24.3 1.7a13.78 13.78 0 0 0 14.96 11.34 13.96 13.96 0 0 0 12.84-12.89v-2.48c0-1.09-.3-2.33-.6-3.26"/><path fill="#fff" d="M67.88 29.38a14.45 14.45 0 0 0-12.54-6.68c0-.78 0-1.55.3-2.17a3.34 3.34 0 0 1 1.96-1.87l-.9-2.48a6.3 6.3 0 0 0-3.32 3.26c-.46 1.09-.76 2.48-.46 3.73-1.2.3-2.41.77-3.47 1.24h-.3a14.47 14.47 0 0 0-6.35 6.83c.6.62 1.66.93 2.87 1.09 1.97 0 4.38-.47 6.04-1.24.6 1.08.6 2.32.6 3.26v1.4h1.37c1.06 0 1.5-.94 1.81-1.4 1.06-1.71 2.72-3.73 4.68-3.89h4.69c1.36 0 2.41-.3 3.02-.93v-.15Zm-5.74-1.56h-1.97c-1.81 0-3.47.94-4.98 2.49-.15.3-.45.46-.6.78 0-.32-.16-.47-.3-.63a6.54 6.54 0 0 0-1.37-2.17l-.9-.93-.91.77c-.76.78-2.42 1.1-3.93 1.4a10.87 10.87 0 0 1 7.7-4.03c2.72-.16 5.3.62 7.4 2.32h-.3m25.99-2.17c-2.12.16-3.78-1.86-4.08-4.5-.3-2.64 0-2.49 2.11-6.68l.9-1.86 1.22 1.7c.45.63 2.87 4.2 3.02 6.37.15 2.18-1.21 4.97-3.32 5.13m-.46-8.08a9 9 0 0 0-.9 3.26c0 1.24.75 2.18 1.36 2.18.6 0 1.05-1.1 1.05-2.33 0-1.25-.75-2.02-1.36-3.1m-5.43 14.28c-.3 0-2.42 0-6.5-2.02l-1.96-.93 1.66-1.25c3.77-2.64 5.74-2.95 6.2-2.95 2.56-.15 4.82 1.25 4.98 3.26.15 2.02-1.82 3.73-4.38 4.04m-3.33-3.57c1.21.47 2.42.93 3.02.78 1.36 0 2.12-.78 2.12-1.25 0-.46-.9-.93-2.27-.93-1.36 0-1.81.62-2.87 1.25m15.86 2.64c-2.57.15-4.83-1.25-4.98-3.27-.15-2.01 1.81-3.72 4.38-4.03 2.57-.31 2.42 0 6.5 2.02l1.96.93-1.66 1.24c-3.78 2.64-5.74 2.95-6.2 2.95m-.3-4.5c-1.36 0-2.11.77-2.11 1.24 0 .46.9.93 2.26.93 1.36 0 1.81-.62 2.87-1.24-1.2-.47-2.42-.93-3.02-.78M31.93 74.87h-1.36V73.8a4.45 4.45 0 0 1-3.93 1.7c-1.2 0-2.12-.46-2.87-1.4a5.07 5.07 0 0 1-.3-6.51c1.66-2.02 3.92-2.33 6.64-.63 0-1.86-.3-3.72-.45-5.59 0-1.55-.3-1.24 1.2-1.7l1.07 15.21Zm-1.67-4.5a3.3 3.3 0 0 0-3.47-3.26c-1.81 0-3.17 1.7-3.02 3.57a3.43 3.43 0 0 0 3.47 3.42c1.82 0 3.18-1.71 3.02-3.73Zm32.64 2.64c-2.58-4.97-5-9.78-7.56-14.6 1.51-.3 1.51-.3 2.11.94 1.67 3.26 3.33 6.52 4.99 10.09.6-1.86 1.2-3.73 1.81-5.44.6-1.7 1.21-3.57 1.81-5.28.3-.82.96-1.24 1.97-1.24-1.81 5.13-3.48 10.25-5.29 15.53m53.02-10.25c-2.42 1.09-4.83 2.02-7.1 2.95.9 2.49 3.78 2.49 6.34 0 .91 1.09.76 1.24-.15 2.02-2.87 2.17-6.64 1.24-7.85-2.02a4.85 4.85 0 0 1 2.27-5.9c1.96-1.09 4.38-.62 5.58 1.24.3.47.46 1.09.76 1.71m-7.25 1.71c.9-.47 1.81-.78 2.87-1.09.9-.3 1.81-.77 2.72-1.24-.9-1.4-2.12-1.7-3.63-1.24a3.26 3.26 0 0 0-1.96 3.57ZM91.74 67.1c1.36 2.5 3.93 2.5 6.35 0 .9.94.75 1.25-.15 2.03-2.87 2.17-6.65 1.24-7.86-2.02a4.85 4.85 0 0 1 2.27-5.9 4.16 4.16 0 0 1 5.59 1.24c.3.47.45 1.09.75 1.7a137.4 137.4 0 0 1-7.1 2.96m5.44-3.73c-.9-1.4-2.12-1.7-3.63-1.24a3.26 3.26 0 0 0-1.96 3.57h.45c1.67-.77 3.33-1.4 5.14-2.17m-20.09 5.12c.75 1.24.75 1.24-.3 2.02-2.87 2.17-6.65 1.24-7.7-2.02-.76-2.33 0-4.81 2.26-5.9A4.16 4.16 0 0 1 76.79 64c.3.47.45 1.1.75 1.71a137.4 137.4 0 0 1-7.1 2.95c.91 2.49 3.78 2.49 6.35 0m-1.06-3.57c-.75-1.4-2.11-1.7-3.47-1.24-1.51.62-2.27 1.86-2.12 3.57 1.81-.78 3.78-1.55 5.6-2.33Zm-32.78 3.26a137.4 137.4 0 0 1-7.1 2.95c.76 2.49 3.93 2.49 6.35 0 .9.93.75 1.09 0 1.87-2.72 2.32-6.65 1.4-7.86-1.87-.75-2.33 0-4.81 2.27-5.9a4.16 4.16 0 0 1 5.59 1.24c.3.47.45 1.09.75 1.71Zm-7.4 1.71a210.2 210.2 0 0 0 5.59-2.33c-.75-1.24-1.96-1.7-3.32-1.24a3.03 3.03 0 0 0-2.12 3.57m52.27.47H86.6c0-1.25-.15-2.49-.3-3.73v-1.7c-.16-1.56-1.06-2.34-2.42-2.34-1.36 0-2.42 1.09-2.42 2.64 0 1.7.15 3.26.3 4.97v.62H80.4l-.6-8.85c.3 0 .75-.15 1.2-.31v.78c.91-.31 1.82-.94 2.88-1.1a3.07 3.07 0 0 1 3.62 2.8c.3 2.02.3 4.2.46 6.22Zm-42.9 1.39c.9.16 1.81.47 2.72.47.75 0 1.2-.31 1.36-1.09 0-.77-.3-1.4-1.06-1.55-.45-.16-1.06-.31-1.51-.47-1.36-.46-2.12-1.7-1.81-2.95a2.5 2.5 0 0 1 2.56-2.17h1.06c1.36.31 1.36.31 1.2 1.55-.75 0-1.5-.3-2.26-.3-.6 0-1.05.3-1.2.92 0 .62.3 1.09.9 1.4.45.16 1.06.31 1.51.47 1.51.62 2.27 1.7 2.12 3.26-.15 1.4-1.36 2.17-2.87 2.33-.46 0-1.06 0-1.51-.31-1.21-.31-1.21-.47-1.06-1.56m72.65-5.59c.91.16 1.67.47 2.42.62.76 0 1.36-.15 1.66-1.08.15-.78-.15-1.4-1.2-1.71-.46-.16-.91-.31-1.52-.47-1.2-.46-1.96-1.7-1.8-2.8a2.5 2.5 0 0 1 2.56-2.17c.75 0 1.51.16 2.42.31v1.4c-.6 0-1.36-.3-1.97-.46-.75 0-1.36 0-1.5.93 0 .77.3 1.24 1.05 1.4.45.15.9.3 1.51.46 1.51.62 2.11 1.71 1.96 3.1-.15 1.25-1.2 2.18-2.72 2.34-.6 0-1.2 0-1.66-.16-1.2-.31-1.2-.46-1.05-1.7m-13.15-6.37v1.24l-2.41.15c0 1.87.15 3.73.45 5.44 0 .93.6 1.24 1.51 1.09.3 0 .76-.16 1.06-.31.3 1.4.15 1.55-1.06 1.7-1.66.16-2.72-.77-3.02-2.48 0-1.4-.15-2.95-.3-4.35v-.93H99.9v-1.24c.3 0 .6 0 1.06-.16 0-1.09-.46-2.48 1.2-2.8v2.65l2.88-.16-.16.16Zm-30.51-3.11c.3.47.6.78.9 1.24-1.35.93-2.56 1.87-4.07 2.8-.3-.31-.45-.78-.76-1.09 1.21-.93 2.57-1.86 3.93-2.8m17.07-.15c.3-.46.45-.93.6-1.4 1.36.78 2.87 1.4 4.23 2.18-.15.46-.3.77-.6 1.24-1.51-.62-2.87-1.4-4.38-2.02M9.27 16.18c0 1.4-.9 2.48-2.27 2.64-1.36.15-2.41-.93-2.57-2.33-.15-1.4.91-2.49 2.27-2.64 1.36-.16 2.42.93 2.57 2.33Zm121.75-9.16c0 1.4-.91 2.48-2.27 2.64-1.36.15-2.42-.93-2.57-2.33-.15-1.4.9-2.49 2.27-2.64 1.36-.16 2.42.93 2.57 2.33ZM14.1 83.41c0 1.4-.9 2.49-2.26 2.64-1.36.16-2.42-.93-2.57-2.33-.15-1.4.9-2.48 2.26-2.64 1.36-.15 2.42.94 2.57 2.33Zm121.75-9.16c0 1.4-.9 2.49-2.27 2.64-1.36.16-2.41-.93-2.56-2.33-.16-1.4.9-2.48 2.26-2.64 1.36-.15 2.42.93 2.57 2.33Z"/></svg>
